<?xml version="1.0" standalone="no"?>
<!DOCTYPE svg PUBLIC "-//W3C//DTD SVG 1.1//EN" "http://www.w3.org/Graphics/SVG/1.1/DTD/svg11.dtd" >
<!--
2013-9-30: Created.
-->
<svg>
<metadata>
Created by iconfont
</metadata>
<defs>

<font id="iconfont" horiz-adv-x="1024" >
  <font-face
    font-family="iconfont"
    font-weight="500"
    font-stretch="normal"
    units-per-em="1024"
    ascent="896"
    descent="-128"
  />
    <missing-glyph />
    
    <glyph glyph-name="sousuo" unicode="&#58920;" d="M953.6-6.4l-211.2 211.2c57.6 64 89.6 147.2 89.6 243.2 0 211.2-172.8 384-384 384S64 659.2 64 448s172.8-384 384-384c96 0 179.2 32 249.6 89.6l211.2-211.2c6.4-6.4 12.8-6.4 25.6-6.4s19.2 0 25.6 6.4c0 12.8 0 38.4-6.4 51.2zM128 448c0 179.2 140.8 320 320 320s320-140.8 320-320-140.8-320-320-320-320 140.8-320 320z"  horiz-adv-x="1024" />

    
    <glyph glyph-name="chenggongyijiejue" unicode="&#59092;" d="M513.559007 751.774337c-248.299109 0-449.587532-201.299679-449.587532-449.625394 0-248.296039 201.288422-449.594695 449.587532-449.594695 248.27762 0 449.63358 201.299679 449.63358 449.594695C963.192587 550.474658 761.836627 751.774337 513.559007 751.774337zM766.338151 404.754832 485.919507 119.738473c-0.044002-0.045025-0.084934-0.092098-0.127913-0.137123s-0.090051-0.085958-0.134053-0.12996l-0.751107-0.763386c-6.256494-6.359848-14.548344-9.5454-22.967084-9.597589-0.061398-0.001023-0.121773-0.001023-0.183172-0.002047-0.161682 0-0.322341-0.004093-0.485047-0.002047-8.398274-0.068562-16.715707 2.979868-23.057135 9.217942L282.51591 271.508086c-12.999059 12.791327-12.775978 34.097586 0.49835 47.590901 13.281491 13.494339 34.58468 14.06739 47.576575 1.276063l130.36921-128.264269 256.507048 260.722046c12.797467 12.999059 34.100656 12.771885 47.591925-0.502443C778.555403 439.057079 779.129478 417.756961 766.338151 404.754832z"  horiz-adv-x="1024" />

    
    <glyph glyph-name="zhaoxiangji" unicode="&#58894;" d="M511.2 828C266.6 828 68.4 629.8 68.4 385.2s198.2-442.8 442.8-442.8S954 140.7 954 385.2 755.7 828 511.2 828zM328.6 531.3c0 5 4.1 9.1 9.1 9.1h27.4c5 0 9.1-4.1 9.1-9.1v-9.1h-45.6v9.1z m410.8-292.1c0-15.1-12.3-27.4-27.4-27.4H310.4c-15.1 0-27.4 12.3-27.4 27.4V476.5c0 15.1 12.3 27.4 27.4 27.4h82.2c27.4 0 36.5 54.8 54.8 54.8h118.7c27.1 0 37.5-54.8 63.9-54.8h82.2c15.1 0 27.4-12.3 27.4-27.4v-237.3zM511.2 476.5c-60.5 0-109.5-49-109.5-109.5s49-109.5 109.5-109.5 109.5 49 109.5 109.5-49 109.5-109.5 109.5z m0-191.7c-45.4 0-82.2 36.8-82.2 82.2 0 45.4 36.8 82.2 82.2 82.2 45.4 0 82.2-36.8 82.2-82.2-0.1-45.4-36.9-82.2-82.2-82.2zM643.5 462.8m-13.7 0a13.7 13.7 0 1 1 27.4 0 13.7 13.7 0 1 1-27.4 0Z"  horiz-adv-x="1024" />

    
    <glyph glyph-name="iconfontdizhi" unicode="&#58911;" d="M328.704 429.056c6.144-9.216 31.744-48.128 160.768-232.448l1.024-1.024c7.168-9.216 19.456-15.36 30.72-15.36 12.288 0 24.576 6.144 30.72 16.384 55.296 79.872 159.744 230.4 163.84 235.52l1.024 1.024c21.504 35.84 33.792 77.824 33.792 119.808 0 125.952-102.4 229.376-229.376 229.376s-229.376-102.4-229.376-229.376C291.84 508.928 304.128 466.944 328.704 429.056L328.704 429.056zM520.192 723.968c94.208 0 171.008-76.8 171.008-171.008 0-30.72-8.192-60.416-24.576-89.088-6.144-9.216-90.112-130.048-145.408-209.92-43.008 61.44-136.192 195.584-145.408 207.872C358.4 488.448 348.16 520.192 348.16 551.936 349.184 646.144 425.984 723.968 520.192 723.968zM520.192 424.96c69.632 0 126.976 57.344 126.976 126.976s-57.344 126.976-126.976 126.976c-69.632 0-126.976-57.344-126.976-126.976S449.536 424.96 520.192 424.96zM520.192 621.568c37.888 0 68.608-30.72 68.608-68.608 0-38.912-30.72-68.608-68.608-68.608-37.888 0-68.608 30.72-68.608 68.608S482.304 621.568 520.192 621.568zM1006.592 126.976 864.256 402.432 746.496 402.432l-46.08-59.392 128 0 130.048-248.832 2.048-2.048c7.168-9.216 7.168-21.504 2.048-31.744-5.12-10.24-15.36-16.384-27.648-16.384L90.112 44.032c-12.288 0-22.528 6.144-27.648 16.384-5.12 11.264-4.096 22.528 3.072 32.768l1.024 1.024L194.56 344.064l145.408 0-48.128 59.392-133.12 0-142.336-276.48c-19.456-27.648-21.504-62.464-6.144-91.136 16.384-30.72 46.08-49.152 80.896-49.152l844.8 0c33.792 0 64.512 18.432 79.872 49.152C1029.12 65.536 1026.048 100.352 1006.592 126.976z"  horiz-adv-x="1024" />

    
    <glyph glyph-name="jiluliebiao" unicode="&#58893;" d="M659 831.333H366.333c-25.405 0-46-20.523-46-45.841v-100.318c0-25.317 20.595-45.841 46-45.841H659c25.405 0 46 20.523 46 45.841V785.492c0 25.318-20.595 45.841-46 45.841z m-18.666-127.666H383.667v64.667h256.667v-64.667zM797.25 768.5H768v-64h30.75c18.777 0 34-15.222 34-34v-636c0-18.777-15.223-34-34-34h-571c-18.778 0-34 15.223-34 34v636c0 18.778 15.222 34 34 34H257v64h-27.75c-55.229 0-100-44.771-100-100v-632c0-55.229 44.771-100 100-100h568c55.229 0 100 44.771 100 100v632c0 55.229-44.771 100-100 100zM768 514c0-18.226-14.774-33-33-33H289c-18.226 0-33 14.774-33 33s14.774 33 33 33h446c18.226 0 33-14.774 33-33zM768 349.667c0-18.226-14.774-33-33-33H289c-18.226 0-33 14.774-33 33s14.774 33 33 33h446c18.226 0 33-14.774 33-33zM768 190c0-18.226-14.774-33-33-33H289c-18.226 0-33 14.774-33 33s14.774 33 33 33h446c18.226 0 33-14.774 33-33z"  horiz-adv-x="1024" />

    
    <glyph glyph-name="youxiangyoujian" unicode="&#58914;" d="M900 704H122c-32.533 0-59-26.467-59-59v-522c0-32.533 26.467-59 59-59h778c32.533 0 59 26.467 59 59V645c0 32.533-26.467 59-59 59z m-53.575-64L556.01 408.988c-15.007-12.005-36.656-24.278-44.01-24.977-7.397 0.699-28.658 12.755-44.079 25.033L177.576 640h668.849zM127 128V598.451l301.01-239.439C439.45 349.86 479.315 320 512 320s72.551 29.86 83.921 38.957L895 596.86V128H127z"  horiz-adv-x="1024" />

    
    <glyph glyph-name="shubijiben" unicode="&#58919;" d="M223.5 799C153.196 799 96 741.691 96 671.25V104h0.29c-0.186-2.811-0.29-5.644-0.29-8.5C96 25.196 153.196-32 223.5-32H927V799H223.5zM351 736h129v-308.171l-41.668 41.887a31.501 31.501 0 0 1-22.25 9.284H416a31.502 31.502 0 0 1-22.216-9.168L351 427.27V736z m513-705H223.5c-35.565 0-64.5 28.935-64.5 64.5s28.935 64.5 64.5 64.5H864v-129zM223.5 223c-23.519 0-45.565-6.408-64.5-17.56V671.25c0 35.703 28.935 64.75 64.5 64.75H288v-384.5a31.5 31.5 0 0 1 53.716-22.332l74.168 73.784 73.284-73.668a31.492 31.492 0 0 1 34.349-6.902A31.5 31.5 0 0 1 543 351.5V736h321v-513H223.5z"  horiz-adv-x="1024" />

    
    <glyph glyph-name="chanpinjieshao" unicode="&#58977;" d="M84.1 542l419.6-194.9c4.3-2 9-3 13.6-3s9.3 1 13.6 3l417.6 194.7c11.3 5.2 18.6 16.5 18.7 28.9 0.1 12.4-7 23.8-18.2 29.2L531.4 803c-8.9 4.3-19.3 4.3-28.1 0L83.6 600.3c-11.2-5.4-18.4-16.8-18.3-29.4 0.2-12.4 7.5-23.7 18.8-28.9z m433.1 196l342.5-166.5L517.2 412 173 571.8 517.2 738z m396.1-333.1L515.6 196.7 112.8 410.9c-15.7 8.4-35.3 2.4-43.7-13.3-8.4-15.7-2.4-35.3 13.3-43.7l417.9-222.1c4.7-2.5 10-3.7 15.1-3.7s10.3 1.2 14.9 3.7l412.8 216.1c15.8 8.3 21.9 27.7 13.6 43.6-8.1 15.6-27.6 21.7-43.4 13.4z m0-169.1L515.6 27.5 112.8 241.6c-15.7 8.4-35.3 2.4-43.7-13.3-8.4-15.7-2.4-35.3 13.3-43.7l417.9-222.1c4.7-2.5 10-3.7 15.1-3.7s10.3 1.2 14.9 3.7l412.8 216.1c15.8 8.3 21.9 27.7 13.6 43.6-8.1 15.7-27.6 21.8-43.4 13.6z m0 0"  horiz-adv-x="1024" />

    
    <glyph glyph-name="liuchengzhong" unicode="&#58981;" d="M555.799273 730.298182h-91.927273a108.962909 108.962909 0 0 1-108.869818-108.869818 109.009455 109.009455 0 0 1 108.869818-108.916364h91.927273c60.043636 0 108.869818 48.872727 108.869818 108.916364a108.962909 108.962909 0 0 1-108.869818 108.869818z m0-148.014546h-91.927273a39.098182 39.098182 0 0 0 0 78.149819h91.927273a39.098182 39.098182 0 0 0 0-78.149819z m0-90.158545h-91.927273a109.009455 109.009455 0 0 1-108.869818-108.916364c0-60.043636 48.826182-108.916364 108.869818-108.916363h91.927273a109.056 109.056 0 0 1 108.869818 108.916363c0 60.043636-48.826182 108.916364-108.869818 108.916364z m0-148.014546h-91.927273a39.098182 39.098182 0 0 0 0 78.196364h91.927273a39.098182 39.098182 0 0 0 0-78.196364z m0-91.834181h-91.927273a108.962909 108.962909 0 0 1-108.869818-108.823273 109.009455 109.009455 0 0 1 108.869818-108.916364h91.927273a109.009455 109.009455 0 0 1 108.869818 108.916364 108.962909 108.962909 0 0 1-108.869818 108.823273z m0-147.921455h-91.927273a39.051636 39.051636 0 1 0 0 78.103273h91.927273a39.051636 39.051636 0 1 0 0-78.103273z m-229.050182 270.754909a34.909091 34.909091 0 0 0-34.909091-34.909091H190.882909a74.333091 74.333091 0 1 1-11.357091-147.781818v18.664727c0 4.747636 2.932364 8.983273 7.307637 10.798546a11.962182 11.962182 0 0 0 12.753454-2.839273l47.476364-49.989818a11.589818 11.589818 0 0 0 0-16.011636l-47.476364-49.989819a11.543273 11.543273 0 0 0-12.753454-2.792727 11.543273 11.543273 0 0 0-7.307637 10.798546v11.496727C105.332364 128.512 46.545455 190.045091 46.545455 265.728c0 79.546182 64.744727 144.290909 144.290909 144.290909h100.957091a34.909091 34.909091 0 0 0 34.955636-34.909091z m516.142545-20.945454v-11.357091a11.543273 11.543273 0 0 0-11.636363-11.636364 11.729455 11.729455 0 0 0-8.471273 3.630546l-47.476364 49.989818a11.636364 11.636364 0 0 0 0 16.011636l47.476364 49.989818a11.869091 11.869091 0 0 0 12.753455 2.839273 11.636364 11.636364 0 0 0 7.307636-10.798545v-18.85091a74.426182 74.426182 0 0 1 64.744727 73.541819c0 41.053091-33.419636 74.472727-74.472727 74.472727H730.298182a34.909091 34.909091 0 0 0 0 69.818182h102.865454c79.546182 0 144.290909-64.744727 144.290909-144.290909 0-76.288-59.578182-138.24-134.562909-143.36z"  horiz-adv-x="1024" />

    
    <glyph glyph-name="mingdanguanli" unicode="&#58904;" d="M832.89-64.15H191.11c-52.44 0-95.11 42.65-95.11 95.08V671.77c0 52.43 42.67 95.08 95.11 95.08h64.94c17.67 0 32-14.33 32-32s-14.33-32-32-32h-64.94c-17.15 0-31.11-13.94-31.11-31.08v-640.83c0-17.14 13.96-31.08 31.11-31.08h641.78c17.15 0 31.11 13.94 31.11 31.08V671.77c0 17.14-13.96 31.08-31.11 31.08h-64.74c-17.67 0-32 14.33-32 32s14.33 32 32 32h64.74c52.44 0 95.11-42.65 95.11-95.08v-640.83c0-52.43-42.67-95.09-95.11-95.09zM605.04 639.05H419.85c-52.92 0-95.98 43.06-95.98 95.98s43.06 95.98 95.98 95.98h185.18c52.92 0 95.98-43.06 95.98-95.98s-43.05-95.98-95.97-95.98zM419.85 767.01c-17.63 0-31.98-14.35-31.98-31.98 0-17.63 14.35-31.98 31.98-31.98h185.18c17.63 0 31.98 14.35 31.98 31.98 0 17.63-14.35 31.98-31.98 31.98H419.85zM672.1 448H350.9c-17.62 0-31.9 14.28-31.9 31.9v0.21c0 17.62 14.28 31.9 31.9 31.9h321.2c17.62 0 31.9-14.28 31.9-31.9v-0.21c0-17.62-14.28-31.9-31.9-31.9zM672.1 288H350.9c-17.62 0-31.9 14.28-31.9 31.9v0.21c0 17.62 14.28 31.9 31.9 31.9h321.2c17.62 0 31.9-14.28 31.9-31.9v-0.21c0-17.62-14.28-31.9-31.9-31.9zM672.1 128H350.9c-17.62 0-31.9 14.28-31.9 31.9v0.21c0 17.62 14.28 31.9 31.9 31.9h321.2c17.62 0 31.9-14.28 31.9-31.9v-0.21c0-17.62-14.28-31.9-31.9-31.9z"  horiz-adv-x="1024" />

    
    <glyph glyph-name="zhengce" unicode="&#58892;" d="M83.356703 813.118061v-638.107152c0-12.288 14.460121-33.450667 26.158545-38.912l431.817697-181.527273c-0.682667 0.682667 2.048-0.682667 2.048-0.682666s2.792727 0.682667 2.079031 0.682666l431.786666 181.527273c11.015758 4.096 26.189576 26.624 26.189576 38.912V813.118061L567.491491 683.442424l-23.396849-6.826666-23.427878 6.826666L83.356703 813.118061zM79.912339 892.95903l462.78594-130.327272 462.785939 130.327272C1048.895612 905.24703 1086.069915 879.305697 1086.069915 833.598061v-657.221819c0-44.373333-34.443636-96.22497-76.427636-113.974303l-432.500364-182.892606c-12.412121-5.461333-24.110545-7.509333-34.443636-7.509333a95.26303 95.26303 0 0 0-34.443637 7.509333l-431.786666 181.527273C33.770279 78.785939 0.009309 130.637576 0.009309 175.010909V833.598061C-0.673358 878.62303 35.849309 905.24703 79.912339 892.95903zM309.3504 326.997333l-95.604364-50.765575 18.835394 107.737212L155.160824 460.8l107.737212 15.794424 47.135031 98.800485 47.786666-98.800485 107.737212-15.794424-78.103272-76.148364 18.835394-107.737212-96.938667 50.082909zM690.433552 452.57697l243.74303 83.00606c20.883394 6.857697 32.985212 30.875152 25.6 52.844606-7.447273 21.255758-30.316606 33.605818-51.851637 26.065455l-243.74303-83.006061c-20.883394-6.857697-32.985212-30.875152-25.6-52.844606 7.447273-21.969455 30.316606-33.605818 51.851637-26.065454z m0-165.391515l243.74303 83.03709c20.883394 6.888727 32.985212 30.875152 25.6 52.844607-7.447273 21.255758-30.316606 33.605818-51.851637 26.065454l-243.74303-83.006061c-20.883394-6.857697-32.985212-30.875152-25.6-52.844606a40.99103 40.99103 0 0 1 51.851637-26.065454z m0-164.646788l243.74303 83.037091c20.883394 6.826667 32.985212 30.875152 25.6 52.813575-7.447273 21.286788-30.316606 33.636848-51.851637 26.065455l-243.74303-83.006061c-20.883394-6.857697-32.985212-30.875152-25.6-52.844606 7.447273-21.938424 30.316606-33.605818 51.851637-26.065454z"  horiz-adv-x="1086" />

    
    <glyph glyph-name="zhengce1" unicode="&#58933;" d="M85.140936 813.11493v-638.076321c0-12.287655 14.790696-33.449728 26.737028-38.910908l441.018738-181.527352c-0.682648 0.682648 2.133273-0.682648 2.133273-0.682647s2.815921 0.682648 2.10483 0.682647l441.047182 181.527352c11.23524 4.095885 26.737028 26.623253 26.737027 38.910908V813.11493L579.605286 683.440346l-23.892663-6.826475-23.921107 6.826475L85.140936 813.11493zM81.613924 892.956245L554.318884 762.599014 1027.023844 892.956245C1071.339045 905.243901 1109.311313 879.303295 1109.311313 833.594355V176.375461c0-44.372088-35.184791-96.224856-78.077809-113.973692l-441.729829-182.892646a88.545071 88.545071 0 0 0-35.184791-7.509123c-10.552593 0-23.210015 2.73059-35.184791 7.509123L78.115355 61.064918C34.482802 78.813753 0.009102 130.666521 0.009102 175.038609V833.594355C-0.673545 878.620648 36.616075 905.243901 81.642368 892.956245zM315.762021 297.260958l-117.187823-63.144895 23.124685 134.054906-94.916449 95.627539 132.035407 19.65456 57.769046 122.961883 58.593912-122.961883 132.035407-19.626116-95.741314-94.802674 23.124684-134.083349-118.837555 62.348473z m389.450407 155.30231l248.967238 83.055447a41.641498 41.641498 0 0 1 26.111267 52.819852c-7.56601 21.275848-30.946687 33.62039-52.933626 26.05438l-248.967237-82.998561a41.641498 41.641498 0 0 1-26.139711-52.848295 41.527724 41.527724 0 0 1 52.962069-26.05438z m0-165.342917l248.967238 83.027004a41.641498 41.641498 0 0 1 26.111267 52.819851c-7.56601 21.275848-30.946687 33.62039-52.933626 26.082824l-248.967237-83.027004a41.641498 41.641498 0 0 1-26.139711-52.819851c7.56601-21.958495 30.946687-32.937743 52.962069-26.082824z m0-164.660269l248.967238 83.027003a41.641498 41.641498 0 0 1 26.111267 52.819852c-7.56601 21.275848-30.946687 33.62039-52.933626 26.082824l-248.967237-83.027004a41.641498 41.641498 0 0 1-26.139711-52.819852 41.527724 41.527724 0 0 1 52.962069-26.082823z"  horiz-adv-x="1109" />

    
    <glyph glyph-name="wenbenzhaiyao" unicode="&#58955;" d="M934.4-128h-844.8c-49.152 0-89.6 40.448-89.6 89.6V733.184c0 49.152 40.448 89.6 89.6 89.6h844.8c49.152 0 89.6-40.448 89.6-89.6v-772.096c0-48.64-40.448-89.088-89.6-89.088z m-844.8 884.224c-12.8 0-23.04-10.24-23.04-23.04v-772.096c0-12.8 10.24-23.04 23.04-23.04h844.8c12.8 0 23.04 10.24 23.04 23.04V733.184c0 12.8-10.24 23.04-23.04 23.04h-844.8zM263.68 724.48v138.24c0 18.432 14.848 33.28 33.28 33.28s33.28-14.848 33.28-33.28v-138.24c0-18.432-14.848-33.28-33.28-33.28s-33.28 14.848-33.28 33.28zM693.76 724.48v138.24c0 18.432 14.848 33.28 33.28 33.28s33.28-14.848 33.28-33.28v-138.24c0-18.432-14.848-33.28-33.28-33.28s-33.28 14.848-33.28 33.28zM803.84 484.864h-583.68c-18.432 0-33.28 14.848-33.28 33.28s14.848 33.28 33.28 33.28h583.68c18.432 0 33.28-14.848 33.28-33.28s-14.848-33.28-33.28-33.28zM803.84 291.84h-583.68c-18.432 0-33.28 14.848-33.28 33.28s14.848 33.28 33.28 33.28h583.68c18.432 0 33.28-14.848 33.28-33.28s-14.848-33.28-33.28-33.28zM803.84 99.328h-583.68c-18.432 0-33.28 14.848-33.28 33.28s14.848 33.28 33.28 33.28h583.68c18.432 0 33.28-14.848 33.28-33.28s-14.848-33.28-33.28-33.28z"  horiz-adv-x="1024" />

    
    <glyph glyph-name="users" unicode="&#59518;" d="M554.666667 298.666667H213.333333c-119.466667 0-213.333333-93.866667-213.333333-213.333334v-85.333333c0-25.6 17.066667-42.666667 42.666667-42.666667s42.666667 17.066667 42.666666 42.666667v85.333333c0 72.533333 55.466667 128 128 128h341.333334c72.533333 0 128-55.466667 128-128v-85.333333c0-25.6 17.066667-42.666667 42.666666-42.666667s42.666667 17.066667 42.666667 42.666667v85.333333c0 119.466667-93.866667 213.333333-213.333333 213.333334zM384 384c119.466667 0 213.333333 93.866667 213.333333 213.333333s-93.866667 213.333333-213.333333 213.333334-213.333333-93.866667-213.333333-213.333334 93.866667-213.333333 213.333333-213.333333z m0 341.333333c72.533333 0 128-55.466667 128-128s-55.466667-128-128-128-128 55.466667-128 128 55.466667 128 128 128zM866.133333 290.133333c-21.333333 4.266667-46.933333-8.533333-51.2-29.866666s8.533333-46.933333 29.866667-51.2c55.466667-12.8 93.866667-64 98.133333-123.733334v-85.333333c0-25.6 17.066667-42.666667 42.666667-42.666667s42.666667 17.066667 42.666667 42.666667v85.333333c-4.266667 98.133333-68.266667 183.466667-162.133334 204.8zM691.2 802.133333c-21.333333 8.533333-42.666667-4.266667-51.2-29.866666-4.266667-21.333333 8.533333-46.933333 29.866667-51.2 68.266667-17.066667 110.933333-85.333333 93.866666-157.866667-12.8-46.933333-46.933333-81.066667-93.866666-93.866667-21.333333-4.266667-38.4-29.866667-29.866667-51.2 4.266667-21.333333 21.333333-34.133333 42.666667-34.133333h8.533333c76.8 21.333333 136.533333 76.8 153.6 153.6 29.866667 119.466667-38.4 238.933333-153.6 264.533333z"  horiz-adv-x="1028" />

    
    <glyph glyph-name="kanban" unicode="&#58936;" d="M899.657143 802.816H124.342857a124.342857 124.342857 0 0 1-124.342857-124.342857v-482.742857a124.342857 124.342857 0 0 1 124.342857-124.342857h775.314286a124.342857 124.342857 0 0 1 124.342857 124.342857v482.742857a124.342857 124.342857 0 0 1-124.342857 124.342857z m-775.314286-73.142857h775.314286a51.2 51.2 0 0 0 51.2-51.2v-482.742857a51.2 51.2 0 0 0-51.2-51.2H124.342857a51.2 51.2 0 0 0-51.2 51.2v482.742857a51.2 51.2 0 0 0 51.2 51.2zM741.522286 614.034286a36.571429 36.571429 0 0 0 57.051428-45.348572l-4.096-5.12-221.110857-231.643428a36.571429 36.571429 0 0 0-47.762286-4.461715l-5.12 4.461715-89.965714 94.208-148.041143-155.136a36.571429 36.571429 0 0 0-46.592-5.339429l-5.12 4.096a36.571429 36.571429 0 0 0-5.339428 46.592l4.096 5.12 174.592 182.857143a36.571429 36.571429 0 0 0 47.762285 4.461714l5.12-4.388571 89.892572-94.208 194.633143 203.849143zM339.821714-80.749714a36.571429 36.571429 0 0 1 46.665143-4.169143l5.12 4.169143L512 39.716571l120.393143-120.466285a36.571429 36.571429 0 0 1 46.665143-4.169143l5.12 4.169143a36.571429 36.571429 0 0 1 4.169143 46.665143l-4.169143 5.12-146.285715 146.285714a36.571429 36.571429 0 0 1-46.665142 4.169143l-5.12-4.169143-146.285715-146.285714a36.571429 36.571429 0 0 1 0-51.785143z"  horiz-adv-x="1024" />

    
    <glyph glyph-name="louceng" unicode="&#58944;" d="M502.784 394.24c-22.528 0-45.056 3.584-66.56 10.752l-289.792 107.52C95.744 531.968 92.16 563.2 92.16 576c1.024 16.384 9.728 31.232 23.04 40.96 14.336 10.752 30.72 18.432 48.128 22.016L452.608 711.68c31.744 7.168 64.512 7.168 96.256 0l309.248-72.192c44.544-10.24 71.68-34.304 73.216-64 0-13.312-3.584-45.568-56.832-64l-308.736-107.52c-19.968-6.144-41.472-9.728-62.976-9.728zM140.8 573.44c0-1.536 5.12-8.704 22.528-14.848l290.304-107.52c31.744-10.24 65.536-10.24 97.28 0l308.224 106.496c18.944 6.656 24.064 13.824 24.064 15.36s-7.68 12.288-35.84 18.944L537.6 665.088c-24.064 5.632-49.152 5.632-73.728 0L175.616 592.384c-27.648-7.168-34.304-16.896-34.816-18.944zM190.464 474.624l-27.136-7.168c-17.408-3.584-33.792-11.264-48.128-22.016-13.312-9.728-21.504-24.576-23.04-40.96-0.512-12.8 3.072-44.032 54.272-62.976l289.792-107.52c41.984-14.336 87.552-14.336 129.536-1.024l308.736 107.52c53.248 18.432 57.344 50.688 56.832 64-1.536 29.696-28.672 53.248-73.216 64l-26.624 6.144-85.504-29.696 101.376-23.552c27.648-6.656 35.328-16.896 35.84-18.944 0.512-2.048-5.632-9.216-24.064-15.36l-308.224-107.52c-31.744-10.24-65.536-10.24-97.28 0l-290.304 107.52c-16.896 6.144-22.016 13.824-22.528 14.848s7.168 12.288 34.816 18.944L271.36 444.416M190.464 302.08l-27.648-6.656c-17.408-4.096-33.28-11.776-47.616-22.528-13.312-9.728-21.504-24.576-23.04-40.448-0.512-12.8 3.072-44.032 54.272-62.976l289.792-107.52c21.504-7.68 44.032-11.264 66.56-10.752 21.504 0 43.008 3.072 63.488 10.24l308.736 107.52c53.248 18.432 57.344 50.688 56.832 64-1.536 29.696-28.672 53.248-73.216 64l-26.624 6.144-85.504-29.184 101.376-23.552c27.648-6.656 35.328-16.896 35.84-18.944s-5.632-9.216-24.064-15.36L551.424 107.52c-31.744-10.24-65.536-10.24-97.28 0l-290.816 107.52c-16.896 6.144-22.016 13.824-22.528 14.848-0.512 1.024 7.168 11.776 34.816 18.432l95.232 24.576"  horiz-adv-x="1024" />

    
    <glyph glyph-name="bangonglou" unicode="&#58890;" d="M896.2 33.1h-32V512.4c0 35.2-28.8 63.9-63.9 63.9H640.5V736.1c0 35.2-28.8 63.9-63.9 63.9H225.1c-35.1 0-63.9-28.8-63.9-63.9v-703h-32c-17.6 0-32-14.4-32-32s14.4-32 32-32h766.9c17.6 0 32 14.4 32 32s-14.3 32-31.9 32zM576.6 512.4v-479.3H225.1V740.6h351.5v-228.2z m223.7-479.3H640.5V512.4h159.8v-479.3zM321 544.3h159.8c17.6 0 32 14.4 32 32s-14.4 32-32 32H321c-17.6 0-32-14.4-32-32 0.1-17.6 14.4-32 32-32zM321 160.9h159.8c17.6 0 32 14.4 32 32s-14.4 32-32 32H321c-17.6 0-32-14.4-32-32s14.4-32 32-32zM704.5 320.6h32c17.6 0 32 14.4 32 32s-14.4 32-32 32h-32c-17.6 0-32-14.4-32-32s14.4-32 32-32zM704.5 160.9h32c17.6 0 32 14.4 32 32s-14.4 32-32 32h-32c-17.6 0-32-14.4-32-32s14.4-32 32-32zM321 352.6h159.8c17.6 0 32 14.4 32 32s-14.4 32-32 32H321c-17.6 0-32-14.4-32-32s14.4-32 32-32z"  horiz-adv-x="1024" />

    
    <glyph glyph-name="qizhi" unicode="&#58902;" d="M921.88 826.576a33.456 33.456 0 0 1-35.072-3.512c-36.048-27.816-96.168-43.752-164.992-43.752-67.664 0-120.696 14.328-166.952 45.104C499 861.6 432.64 896 326.128 896c-106.096 0-193.136-37.784-232.32-75.224a33.392 33.392 0 0 1-10.296-24.088v-891.368a33.296 33.296 0 0 1 33.312-33.312 33.304 33.304 0 0 1 33.312 33.312v332.72c33.168 24.664 97.72 48.408 175.992 48.408 84 0 137.44-24.136 191.832-60.408 56.88-37.864 123.568-56.28 203.856-56.28 84.384 0 157.448 20.472 205.656 57.616a33.288 33.288 0 0 1 13.008 26.384V796.68a33.288 33.288 0 0 1-18.6 29.896z m-48.016-555.328c-36.696-22.28-90.96-34.872-152.048-34.872-67.664 0-120.696 14.344-166.88 45.088-55.808 37.184-122.144 71.6-228.808 71.6-69.552 0-130.92-16.264-175.992-37.992V781.2c33.208 24.56 97.912 48.176 175.992 48.176 83.864 0 137.344-24.16 191.832-60.424 56.88-37.848 123.568-56.264 203.856-56.264 57.312 0 109.432 9.432 152.048 27.112v-468.552z"  horiz-adv-x="1024" />

    
    <glyph glyph-name="qizi" unicode="&#58964;" d="M827.1 769c-2.3 0-4.7-0.3-7.1-0.9-38-9.2-76-12.8-114-12.8-129.3 0-258.6 41.4-388 41.4-28.7 0-57.3-2.4-86-7.4V804c0 15.5-12.5 28-28 28s-28-12.5-28-28v-840c0-15.5 12.5-28 28-28s28 12.5 28 28V341.3c28.7 5 57.3 7.4 86 7.4 129.3 0 258.6-41.4 388-41.4 38 0 76 3.6 114 12.8 15.4 3.7 28 20.4 28 35.9V748c0 13-8.9 21-20.9 21zM792 371.3c-26.7-5.4-55-8-86-8-60.2 0-120.9 9.7-185.1 20-65.7 10.5-133.7 21.4-202.8 21.4-30.1 0-58.7-2.1-86-6.3V732.7c26.8 5.3 55.2 8 86 8 60.2 0 120.9-9.7 185.1-20 65.7-10.5 133.7-21.4 202.8-21.4 30.3 0 58.7 2.1 86 6.3v-334.3z"  horiz-adv-x="1024" />

    
    <glyph glyph-name="qizhi1" unicode="&#58928;" d="M360.56779688 687.37491259c-34.36511523 0-67.99940039-4.49782689-100.94584596-13.48810643v-333.59686817c33.63428515 6.63120457 67.31156078 10.00054371 100.94584596 10.00054443 24.86970288 0 49.77702271-2.80509595 74.67359472-8.53888501 24.89119848-5.7284148 53.1786045-13.8212788 84.93745191-24.38069213 4.05180591-1.46165942 11.60729444-4.04643164 22.72020458-7.75431739 11.15052563-3.81536083 19.28100586-6.51835596 24.45055103-8.20033837 5.21253491-1.68735668 12.77339771-3.933583 22.76856787-6.85690186 9.9736753-2.91794459 18.36209473-4.94384789 25.10614795-6.28728443 6.7548003-1.34881079 14.55210816-2.58477222 23.26832642-3.70788575 8.74846094-1.12848706 17.07776929-1.68735668 25.00942065-1.68735668 34.34899389 0 68.00477393 4.37960401 100.94584596 13.36988354v333.7097168a512.70387084 512.70387084 0 0 0-100.94584596-10.11339306c-24.9180669 0-49.81463891 2.92331885-74.67359472 8.65173364-24.87507714 5.73378833-53.1893523 13.8212788-84.91595705 24.38069214a3468.10913109 3468.10913109 0 0 0-22.7846892 7.75431738 3037.58598023 3037.58598023 0 0 1-24.46129882 8.09286401c-5.16954517 1.68198315-12.74115503 3.92820948-22.71483032 6.8515276-9.9736753 2.92331885-18.34597412 5.05669653-25.1115215 6.40550732-6.77092164 1.23596215-14.52523901 2.47192359-23.26832641 3.70788573a196.76513648 196.76513648 0 0 1-25.00404711 1.68735669zM360.56779688 754.78857422c18.55555005 0 38.5835066-2.36444921 59.95490039-6.96437695 21.36064599-4.72352416 41.97971484-10.33909033 61.79272191-16.85744556l59.39065651-19.77539087s20.62444238-5.61556616 61.81959106-16.85207202c41.17365308-11.23650586 61.17474121-13.59558082 59.92803125-6.96437623 18.93708569 0 37.60548438 1.12311352 56.00519604 3.36933984 18.43195362 2.24622632 34.09642749 5.05132227 47.09552247 8.42603566 12.99372143 3.36933983 24.55802613 6.63120457 34.81650977 9.99517016 10.25311011 3.37471337 17.92682152 6.17980933 23.00501294 8.43678344l7.36203393 3.36396631V249.17267675999994c-1.75184132-0.89741553-4.38497827-2.13337768-7.88866089-3.59503711-3.53055176-1.46165942-10.93557617-4.15928028-22.22044604-8.20033911a361.85203222 361.85203222 0 0 0-35.35925807-10.22624097c-12.2790127-2.92331885-27.75003199-5.62093969-46.43992552-8.09286402a428.23393481 428.23393481 0 0 0-56.37061037-3.70788574c-18.56092358 0-38.56201172 2.36444921-59.93340551 7.08259912a580.568927 580.568927 0 0 0-61.81959106 16.85207203l-59.39065651 19.66791576-61.79809545 16.95954713c-41.18977441 11.12365723-61.17474121 13.48810643-59.94952685 6.96975048-33.47844678 0-67.13422681-3.82073437-100.94584596-11.34935449v-224.60652221c0-9.32882543-3.28873316-17.30346656-9.88769507-23.82182251-6.57209277-6.63120457-14.50374415-9.88769508-23.79495409-9.8876958-9.2858357 0-17.21748706 3.25649121-23.79495338 9.8876958C195.55076001 29.61747680999997 192.26202685 37.592117919999964 192.26202685 46.920943360000024V720.966208c1.75184132 0.90278978 4.40647314 2.13875122 7.91015577 3.60041065 3.50905689 1.45628588 10.91408129 4.26675536 22.19895117 8.20033838a361.85203222 361.85203222 0 0 0 35.35925806 10.22624169c12.30588183 2.91794459 27.79302172 5.61556616 46.41843066 8.08748976A429.46989625 429.46989625 0 0 0 360.546302 754.78857422h0.02149488z"  horiz-adv-x="1024" />

    
    <glyph glyph-name="qizhi-" unicode="&#58891;" d="M360.448 687.616c-34.304 0-68.096-4.608-100.864-13.312v-333.824c33.792 6.656 67.072 10.24 100.864 10.24 25.088 0 49.664-2.56 74.752-8.704 25.088-5.632 53.248-13.824 84.992-24.576 4.096-1.536 11.776-4.096 22.528-7.68 11.264-3.584 19.456-6.656 24.576-8.192 5.12-1.536 12.8-4.096 22.528-6.656 9.728-3.072 18.432-5.12 25.088-6.144 6.656-1.536 14.336-2.56 23.04-3.584 8.704-1.024 16.896-1.536 25.088-1.536 34.304 0 68.096 4.608 100.864 13.312V629.76c-33.28-6.656-67.072-10.24-100.864-10.24-25.088 0-49.664 3.072-74.752 8.704s-53.248 13.824-84.992 24.576L480.256 660.48c-8.192 2.56-16.384 5.632-24.576 8.192-5.12 1.536-12.8 4.096-22.528 6.656s-18.432 5.12-25.088 6.656c-6.656 1.024-14.336 2.56-23.04 3.584-7.68 1.024-15.872 1.536-24.576 2.048z m0 67.072c18.432 0 38.4-2.56 59.904-7.168 21.504-4.608 41.984-10.24 61.952-16.896l59.392-19.968s20.48-5.632 61.952-16.896c17.408-4.608 48.128-7.168 59.904-7.168 18.944 0 37.376 1.024 55.808 3.584 18.432 2.048 34.304 5.12 47.104 8.192 12.8 3.584 24.576 6.656 34.816 10.24s17.92 6.144 23.04 8.192l7.168 3.584v-471.552c-1.536-1.024-4.608-2.048-7.68-3.584-3.584-1.536-10.752-4.096-22.016-8.192-11.776-4.096-23.552-7.168-35.328-10.24-12.288-3.072-27.648-5.632-46.592-8.192-18.944-2.56-37.376-3.584-56.32-3.584-18.432 0-38.4 2.56-59.904 7.168-20.992 4.608-41.472 10.24-61.952 16.896l-59.392 19.456-61.952 16.896c-9.728 2.56-31.232 6.144-59.904 7.168-33.28 0-67.072-3.584-100.864-11.264v-224.768c0-9.216-3.072-17.408-9.728-24.064-6.656-6.656-14.336-9.728-23.552-9.728-9.216 0-17.408 3.072-23.552 9.728-6.656 6.656-9.728 14.336-9.728 24.064V720.896c1.536 1.024 4.608 2.048 7.68 3.584 3.584 1.536 10.752 4.096 22.016 8.192 11.776 4.096 23.552 7.168 35.328 10.24 12.288 3.072 27.648 5.632 46.592 8.192 18.432 2.56 36.864 3.584 55.808 3.584z"  horiz-adv-x="1024" />

    
    <glyph glyph-name="shanjianzhi_qi" unicode="&#59055;" d="M928.44 843.83c-18.03 8.53-40.57 4.26-54.1-8.52 0 0-40.57-34.1-162.29-34.1-67.62 0-121.72 21.31-180.33 42.62-67.63 25.58-135.25 51.15-216.4 51.15-157.79 0-220.9-51.15-238.94-59.67-9.01-8.53-13.52-21.31-13.52-34.1v-558.37c0-1.99 0.19-3.99 0.55-5.97v-317.98c0-25.58 17.63-46.89 38.8-46.89 24.69 0 38.8 21.31 38.8 46.89V203.04c2.71 1.65 5.24 3.55 7.51 5.69 0 0 40.58 34.1 162.3 34.1 67.62 0 121.72-21.32 180.33-42.63 67.62-25.57 135.25-51.15 216.39-51.15 162.3 0 220.9 51.15 238.94 59.67 9.02 8.53 13.53 21.31 13.53 34.1V801.21c-0.01 17.05-13.54 34.1-31.57 42.62zM885 262.4c-24.15-8.8-72.47-26.4-159.43-26.4-72.47 0-130.44 22.01-193.25 44.01-72.47 26.41-144.94 52.81-231.9 52.81-67.64 0-120.78-8.8-159.43-13.2V790.59C165.15 799.4 213.47 817 300.43 817c72.47 0 130.44-22.01 193.25-44.01 72.47-26.41 144.93-52.82 231.9-52.82 67.64 0 120.78 8.8 159.43 17.6V262.4z"  horiz-adv-x="1024" />

    
    <glyph glyph-name="pan_icon" unicode="&#59000;" d="M999.050 697.426l-173.617 173.607c-15.437 15.427-36.758 24.968-60.308 24.968s-44.87-9.541-60.308-24.968l-671.069-671.080c-0.317-0.317-0.42-0.748-0.717-1.085-3.484-3.697-5.987-8.356-7.071-13.536 1.746 5.457 1.603 5.293 1.521 5.099-1.226-2.946-1.975-6.363-2.058-9.945l-25.303-277.478c-0.074-0.767-0.115-1.659-0.115-2.56 0-15.708 12.732-28.442 28.438-28.446 0.861-0 1.71-0 2.571 0.113l279.426 25.405c3.632 0.344 6.962 1.321 9.986 2.822-1.773-0.795-1.599-0.641-1.405-0.559 4.877 2.202 8.889 5.582 11.789 9.789-3.587-4.259-3.157-4.157-2.829-3.839l533.477 533.446s0 0.061 0.051 0.082l137.542 137.542c15.413 15.446 24.943 36.766 24.943 60.313 0 23.546-9.531 44.867-24.945 60.314zM587.305 673.116l213.829-213.829-493.265-493.265-213.829 213.829zM59.839-68.179l16.824 185.014 168.19-168.19zM958.848 617.002l-117.503-117.503-213.839 213.819 117.513 117.513c5.142 5.153 12.252 8.34 20.106 8.34s14.964-3.188 20.106-8.34l173.617-173.597c5.136-5.154 8.312-12.264 8.312-20.116 0-7.852-3.176-14.963-8.313-20.117zM333.274 176.831c0.012-0 0.026-0 0.040-0 7.837 0 14.931 3.182 20.061 8.324l254.042 254.031c5.144 5.144 8.326 12.251 8.326 20.101 0 15.7-12.727 28.427-28.427 28.427-7.85 0-14.957-3.182-20.101-8.326l-254.041-254.031c-5.145-5.144-8.326-12.251-8.326-20.101 0-15.699 12.727-28.426 28.426-28.426 0.001 0 0.001 0 0.002 0z"  horiz-adv-x="1024" />

    
    <glyph glyph-name="icon-test" unicode="&#58889;" d="M875 500.5c0 43.9-35.7 79.6-79.6 79.6s-79.6-35.7-79.6-79.6c0-28 14.6-52.7 36.5-66.9-4.3-13.9-11.6-25.1-22-33.4-18.1-14.5-45.4-20.3-77-16.3-44.7 5.7-87.9 81.1-104.4 143 28.1 12.3 47.7 40.4 47.7 72.9 0 43.9-35.7 79.6-79.6 79.6s-79.6-35.7-79.6-79.6c0-30.1 16.8-56.3 41.5-69.9-13.5-56.6-49.5-130.8-109-145.9-25.7-6.5-49.9-3.1-68 9.8-13.5 9.6-22.9 23.6-27.9 41.2 20.7 14.4 34.2 38.3 34.2 65.4 0 43.9-35.7 79.6-79.6 79.6S149 544.4 149 500.5c0-37.7 26.4-69.3 61.6-77.5L304 109.4c3.8-12.7 15.5-21.4 28.8-21.4h364.6c13.3 0 25 8.7 28.8 21.4L820 424.8c31.9 10.4 55 40.4 55 75.7z m-646.4 19.6c10.8 0 19.6-8.8 19.6-19.6 0-8.6-5.5-15.9-13.2-18.5h-1.7c-2.5 0-4.9-0.3-7.3-0.9-9.6 1.3-17 9.5-17 19.4 0 10.8 8.8 19.6 19.6 19.6zM517 619.6c10.8 0 19.6-8.8 19.6-19.6 0-9.5-6.9-17.5-15.9-19.2-2.3 0.6-4.8 0.9-7.3 0.9-1 0-1.9 0-2.9-0.1-7.6 2.7-13.1 9.9-13.1 18.5 0 10.7 8.8 19.5 19.6 19.5zM675 148H355.1l-53.5 179.7c25.5-8.4 54-9.1 83.1-1.7 45.2 11.5 84.8 44.3 114.6 94.8 5.2 8.9 10.1 18.2 14.6 27.8 5.3-11.4 11.1-22.5 17.3-32.8 32.4-54.3 72-85.9 114.4-91.4 30.6-3.9 59.4-1.1 84.2 7.8L675 148z m120.4 372.1c10.8 0 19.6-8.8 19.6-19.6 0-8.9-6-16.4-14.1-18.8-1.4 0.2-2.7 0.3-4.1 0.3H789c-7.7 2.7-13.2 9.9-13.2 18.5 0 10.8 8.8 19.6 19.6 19.6z"  horiz-adv-x="1024" />

    
    <glyph glyph-name="gouwudai" unicode="&#59030;" d="M512.106667 853.333333a149.44 149.44 0 0 0 149.418666-149.44V682.666667h131.2a42.666667 42.666667 0 0 0 42.538667-39.125334l56.874667-682.666666A42.666667 42.666667 0 0 0 849.621333-85.333333H174.378667a42.666667 42.666667 0 0 0-42.517334 46.208l56.874667 682.666666A42.666667 42.666667 0 0 0 231.253333 682.666667H362.666667v21.226666a149.44 149.44 0 0 0 144.298666 149.333334l5.12 0.106666zM362.666667 618.666667h-117.333334L192-21.333333h640l-53.333333 640h-117.141334v-21.013334a32 32 0 0 0-28.906666-31.872l-3.093334-0.128a32 32 0 0 0-32 32V618.666667h-170.88l0.021334-21.013334a32 32 0 0 0-28.928-31.872l-3.072-0.128a32 32 0 0 0-32 32V618.666667z m32-85.333334a32 32 0 0 0 32-32v-21.333333a32 32 0 0 0-64 0v21.333333a32 32 0 0 0 32 32z m234.666666 0a32 32 0 0 0 32-32v-21.333333a32 32 0 0 0-64 0v21.333333a32 32 0 0 0 32 32zM512.106667 789.333333A85.44 85.44 0 0 1 426.666667 703.893333V682.666667h170.858666v21.226666a85.44 85.44 0 0 1-81.152 85.333334l-4.266666 0.106666z"  horiz-adv-x="1024" />

    
    <glyph glyph-name="multilayer" unicode="&#58968;" d="M979.776 539.968c-2.496 2.816-4.992 5.696-7.808 8.064-7.488 6.272-15.488 11.712-24.384 16.064-130.816 64.192-261.504 128.64-392.32 192.832-11.264 5.44-23.168 9.472-35.712 11.072-4.032 0-8.128 0-12.16 0-30.4-5.568-56.512-21.696-83.584-34.88-118.592-57.472-236.992-115.136-355.2-173.376-18.304-9.088-32.576-23.488-35.904-45.504-0.128-0.768-0.448-1.472-0.704-2.176 0-3.136 0-6.272 0-9.344 1.92-10.048 5.12-19.584 11.904-27.584 2.368-2.688 4.608-5.568 7.36-7.808 7.232-5.824 14.528-11.456 22.976-15.616 131.776-64.704 263.36-129.664 395.264-194.176 11.136-5.504 22.592-10.88 35.456-12.032 13.056-1.216 25.28 1.024 36.8 6.656 133.376 65.216 266.624 130.432 399.936 195.712 4.48 2.24 9.152 4.096 13.376 6.72 12.48 7.488 24.192 16.128 30.784 29.632 2.816 5.76 4.096 12.288 6.144 18.496 0 3.136 0 6.272 0 9.344-2.048 10.176-5.312 19.904-12.224 27.904zM934.848 345.024c-14.336 2.496-28.352 1.088-41.536-5.44-25.344-12.608-50.496-25.728-76.032-38.016-100.224-48.128-200.64-96-300.928-144.064-2.88-1.344-5.184-1.536-8.192-0.128-122.88 59.584-245.696 119.040-368.512 178.56-20.608 9.984-42.432 12.992-64.704 8.832-22.848-4.352-38.72-23.232-41.92-47.232-0.192-1.28-0.704-2.624-1.024-3.904 0-4.032 0-8.128 0-12.16 1.92-9.856 5.12-19.2 11.584-27.2 6.144-7.552 13.312-13.76 21.952-17.984 134.976-66.944 270.016-133.952 405.184-200.512 10.816-5.312 22.016-10.56 34.624-11.584 12.672-1.024 24.704 1.088 35.968 6.464 138.816 66.432 277.632 132.8 416.256 199.552 18.624 8.96 29.184 24.832 33.408 44.864 0.384 1.472 0.704 3.008 1.088 4.48 0 3.776 0 7.488 0 11.264-1.28 4.096-2.112 8.448-3.776 12.352-9.792 24.128-28.288 37.376-53.44 41.856zM934.784 129.344c-14.272 2.496-28.352 1.088-41.536-5.44-25.664-12.736-51.136-25.984-76.928-38.464-99.776-47.872-199.552-95.424-299.328-143.296-3.648-1.664-6.464-1.6-9.92 0.128-122.112 59.264-244.288 118.4-366.464 177.728-18.88 9.152-38.72 11.84-59.2 10.24-23.808-1.792-42.176-19.136-47.36-43.264-0.704-3.008-1.408-5.952-2.048-8.96 0-4.032 0-8.128 0-12.16 1.92-9.664 4.992-18.88 11.264-26.816 6.272-7.872 13.696-14.208 22.656-18.624 134.784-66.816 269.632-133.696 404.608-200.192 11.52-5.696 23.616-10.944 36.8-12.16 3.136 0 6.272 0 9.344 0 10.816 1.728 20.992 5.12 30.848 10.112 12.672 6.4 26.048 11.52 38.848 17.664 123.2 59.2 246.336 118.528 369.344 177.792 19.52 9.408 30.848 25.28 35.2 46.272 0.32 1.344 0.64 2.688 1.024 4.032 0 3.776 0 7.488 0 11.264-1.28 4.096-2.112 8.448-3.776 12.352-9.664 24.128-28.224 37.376-53.376 41.792z"  horiz-adv-x="1024" />

    
    <glyph glyph-name="suo" unicode="&#59040;" d="M184.32 424.96v102.4c0 180.224 147.456 327.68 327.68 327.68s327.68-147.456 327.68-327.68v-102.4h40.96c22.528 0 40.96-18.432 40.96-40.96v-430.08c0-22.528-18.432-40.96-40.96-40.96h-737.28c-22.528 0-40.96 18.432-40.96 40.96v430.08c0 22.528 18.432 40.96 40.96 40.96h40.96z m40.96 0h573.44v102.4c0 157.696-129.024 286.72-286.72 286.72s-286.72-129.024-286.72-286.72v-102.4z m307.2-262.144v-86.016c0-12.288-8.192-20.48-20.48-20.48s-20.48 8.192-20.48 20.48v86.016c-18.432 8.192-30.72 26.624-30.72 47.104 0 28.672 22.528 51.2 51.2 51.2s51.2-22.528 51.2-51.2c0-20.48-12.288-38.912-30.72-47.104z m348.16-208.896v430.08h-737.28v-430.08h737.28z"  horiz-adv-x="1024" />

    
    <glyph glyph-name="shouji" unicode="&#58901;" d="M760.32-128H263.68c-56.32 0-102.4 46.08-102.4 102.4V793.6c0 56.32 46.08 102.4 102.4 102.4h494.08c56.32 0 102.4-46.08 102.4-102.4v-819.2c2.56-56.32-43.52-102.4-99.84-102.4zM263.68 844.8c-28.16 0-51.2-23.04-51.2-51.2v-819.2c0-28.16 23.04-51.2 51.2-51.2h494.08c28.16 0 51.2 23.04 51.2 51.2V793.6c0 28.16-23.04 51.2-51.2 51.2H263.68zM593.92 734.72h-161.28c-15.36 0-25.6 10.24-25.6 25.6s10.24 25.6 25.6 25.6h161.28c15.36 0 25.6-10.24 25.6-25.6s-12.8-25.6-25.6-25.6zM186.88 133.12h647.68v-51.2H186.88zM512 7.68m-43.52 0a43.52 43.52 0 1 1 87.04 0 43.52 43.52 0 1 1-87.04 0Z"  horiz-adv-x="1024" />

    
    <glyph glyph-name="email" unicode="&#58910;" d="M171.16772649 67.51726495000003c-40.24560684 0-72.98516239 32.73408547-72.98516239 72.96328206V627.5085128200001c0 40.24013675 32.73955556 72.97969231 72.98516239 72.97969231h681.66454702c40.24013675 0 72.96875213-32.73955556 72.96875213-72.97969231v-487.02796581c0-19.45381197-7.59029059-37.76437607-21.39131623-51.56649573a72.44252992 72.44252992 0 0 0-51.56649574-21.39678633H171.16772649z m-0.00547008 576.11705984a16.16519658 16.16519658 0 0 1-16.12581197-16.1148718v-487.03890598a16.15972649 16.15972649 0 0 1 16.13128205-16.1148718h681.66454702a16.16519658 16.16519658 0 0 1 16.12581196 16.10393163V627.5085128200001a16.17066667 16.17066667 0 0 1-16.1148718 16.12581197H171.16225641zM514.09504274 352.04376069a28.47726495 28.47726495 0 0 0-18.10926497 6.52581196L155.98276923 639.63569231l36.224 43.81866666 321.77558974-266.00259828 317.71569231 265.8625641 36.49312821-43.60095727-335.8523077-281.03767521a28.416 28.416 0 0 0-18.24382905-6.63193162z"  horiz-adv-x="1024" />

    
    <glyph glyph-name="duowenjian" unicode="&#59173;" d="M512 0a98.517 98.517 0 0 0-46.93 11.99l-276.4 150.66c-31.81 17.26-43.6 57.05-26.34 88.86a65.605 65.605 0 0 0 26.34 26.34l44.71 24.41-44.71 24.23c-31.81 17.26-43.6 57.05-26.34 88.86a65.605 65.605 0 0 0 26.34 26.34l44.71 24.23-44.71 24.36c-31.81 17.26-43.6 57.05-26.34 88.86a65.605 65.605 0 0 0 26.34 26.34l276.27 150.49a98.16 98.16 0 0 0 94.17 0l276.22-150.66c31.81-17.26 43.6-57.05 26.34-88.86a65.605 65.605 0 0 0-26.34-26.34l-44.67-24.36 44.67-24.41c31.81-17.26 43.6-57.05 26.34-88.86a65.605 65.605 0 0 0-26.34-26.34l-44.67-24.36 44.67-24.41c31.81-17.26 43.6-57.05 26.34-88.86a65.605 65.605 0 0 0-26.34-26.34L559.06 12.03A98.717 98.717 0 0 0 512 0zM301.78 264.79l-81.75-44.59L496.3 69.5a32.75 32.75 0 0 1 31.36 0l276.31 150.7-81.96 44.59-162.94-89a98.16 98.16 0 0 0-94.17 0l-163.12 89z m0 163.75L220.03 384 496.3 233.3a32.75 32.75 0 0 1 31.36 0L803.97 384l-81.96 44.59-162.94-88.96a98.16 98.16 0 0 0-94.17 0l-163.12 88.91zM512 702.46c-5.49-0.01-10.88-1.39-15.7-4.01L220.03 547.8 496.3 397.1a32.75 32.75 0 0 1 31.36 0l276.31 150.7-276.31 150.7c-4.8 2.63-10.19 4-15.66 4.01v-0.05z"  horiz-adv-x="1024" />

    
    <glyph glyph-name="shouji1" unicode="&#58881;" d="M724.350707 832.646465H297.787475C253.310707 832.646465 217.212121 796.444444 217.212121 752.071111v-736.245656c0-44.476768 36.20202-80.575354 80.575354-80.575354h426.563232c44.476768 0 80.575354 36.20202 80.575354 80.575354V752.071111c0 44.476768-36.098586 80.575354-80.575354 80.575354zM297.787475 791.272727h426.563232c21.617778 0 39.201616-17.583838 39.201616-39.201616V716.282828H258.585859v35.788283C258.585859 773.688889 276.169697 791.272727 297.787475 791.272727zM258.585859 674.909091h505.069899v-527.72202H258.585859V674.909091z m465.764848-698.285253H297.787475c-21.617778 0-39.201616 17.583838-39.201616 39.201617v89.987878h505.069899v-89.987878c-0.103434-21.617778-17.687273-39.201616-39.305051-39.201617z m0 0M435.975758 746.278788h150.083232c8.274747 0 14.99798 6.723232 14.99798 14.99798 0 8.274747-6.723232 14.99798-14.99798 14.997979H435.975758c-8.274747 0-14.99798-6.723232-14.99798-14.997979 0-8.274747 6.723232-14.99798 14.99798-14.99798z m0 0M457.490101 40.339394c0-19.135354 10.214141-36.822626 26.789495-46.403232 16.575354-9.567677 37.003636-9.567677 53.57899 0a53.575111 53.575111 0 0 1 26.789495 46.403232c0 29.595152-23.983838 53.57899-53.57899 53.57899-29.595152 0-53.57899-23.983838-53.57899-53.57899z m0 0"  horiz-adv-x="1024" />

    
    <glyph glyph-name="LC_icon_user_line_1" unicode="&#58908;" d="M1024 383.94c0 282.154-229.906 512.060-512.060 512.060s-511.94-229.906-511.94-512.060c0-155.409 70.509-295.215 180.201-389.185 1.33-1.33 2.66-2.66 5.2-3.87 88.77-74.499 202.454-118.884 327.869-118.884 122.755 0 236.439 44.385 325.209 116.224 5.2 1.33 9.191 5.2 11.731 9.191 105.944 95.301 173.791 232.446 173.791 386.525zM47.045 383.94c0 256.030 208.985 465.015 465.015 465.015s465.015-208.985 465.015-465.015c0-125.415-49.585-238.977-130.615-322.669-13.061 61.438-52.246 165.93-172.46 233.777 27.454 33.984 43.055 78.369 43.055 125.415 0 112.354-91.43 203.784-203.784 203.784s-203.784-91.43-203.784-203.784c0-47.045 16.931-90.1 43.055-125.415-121.302-67.847-160.487-172.34-172.219-233.777-82.36 82.36-133.276 197.254-133.276 322.669zM355.321 419.254c0 86.23 70.509 156.739 156.739 156.739s156.739-70.509 156.739-156.739-70.509-156.739-156.739-156.739-156.739 70.509-156.739 156.739zM222.046 20.877c2.66 37.855 23.462 165.93 164.6 237.769 35.315-27.454 78.369-43.055 125.415-43.055 47.045 0 91.43 16.931 126.745 44.385 139.806-71.839 161.939-197.254 165.93-237.769-79.7-63.978-181.531-103.161-291.224-103.161-111.142-0.12-211.766 37.734-291.465 101.831z"  horiz-adv-x="1024" />

    
    <glyph glyph-name="17" unicode="&#58937;" d="M58.304 141.056c0-116.416 94.4-210.816 210.816-210.816s210.816 94.4 210.816 210.816l-0 210.816h-210.88c-116.416 0-210.752-94.4-210.752-210.816zM403.392 141.056c0-74.112-60.288-134.336-134.336-134.336s-134.336 60.288-134.336 134.336 60.288 134.336 134.336 134.336h134.336v-134.336zM965.696 626.944c0 116.416-94.4 210.816-210.816 210.816s-210.816-94.4-210.816-210.816v-210.816h210.816c116.48-0 210.816 94.4 210.816 210.816zM620.544 626.944c0 74.112 60.288 134.336 134.336 134.336s134.336-60.288 134.336-134.336c0-74.112-60.288-134.336-134.336-134.336h-134.336v134.336zM269.056 416.128h210.816l0 210.816c0 116.416-94.4 210.816-210.816 210.816-116.416 0-210.816-94.4-210.816-210.816 0.064-116.416 94.4-210.816 210.816-210.816zM269.056 761.28c74.112 0 134.336-60.288 134.336-134.336v-134.336l-134.336 0c-74.112 0-134.336 60.288-134.336 134.336 0 74.048 60.288 134.336 134.336 134.336zM754.944 351.872h-210.816v-210.816c0-116.416 94.4-210.816 210.816-210.816s210.816 94.4 210.816 210.816-94.4 210.816-210.816 210.816zM754.944 6.72c-74.112 0-134.336 60.288-134.336 134.336v134.336h134.336c74.112 0 134.336-60.288 134.336-134.336s-60.288-134.336-134.336-134.336z"  horiz-adv-x="1024" />

    
    <glyph glyph-name="type" unicode="&#59072;" d="M489.714 507.635c0-56.246-45.635-101.881-101.881-101.881h-251.51c-56.245 0.531-101.881 46.166-101.881 101.881v252.043c0 56.245 45.635 101.882 101.881 101.882h251.51c56.245 0 101.881-45.636 101.881-101.882v-252.043zM431.342 759.677c0 23.881-19.099 42.983-42.978 42.983h-252.043c-23.879 0-42.982-19.103-42.982-42.983v-252.042c0-23.881 19.103-42.978 42.982-42.978h251.51c23.879 0 42.982 19.098 42.982 42.978v252.042h0.527zM151.711 626.494c-7.959 0-14.857 6.366-14.857 14.858v26.53c0 40.858 27.057 76.407 64.731 76.407h91.802c7.954 0 14.855-6.367 14.855-14.858 0-7.956-6.368-14.858-14.855-14.858h-91.801c-22.816 0-35.018-25.468-35.018-47.222v-26.533c0-7.959-6.371-14.325-14.858-14.325v0 0zM146.402 576.085c-3.713 0-7.428 1.589-10.611 4.241-2.652 2.658-4.246 6.901-4.246 10.619 0 3.714 1.595 7.429 4.246 10.612 5.302 5.301 15.389 5.301 20.691 0 2.658-2.658 4.247-6.37 4.247-10.612 0-3.715-1.589-7.43-4.247-10.085-2.653-3.184-6.366-4.773-10.080-4.773v0 0zM989.557 507.635c0-56.246-45.635-101.881-101.879-101.881h-252.045c-56.246 0-101.879 45.634-101.879 101.881v252.043c0 56.245 45.633 101.882 101.879 101.882h252.044c56.244 0 101.879-45.636 101.879-101.882v-252.043h0.001zM930.656 759.677c0 23.881-19.099 42.983-42.978 42.983h-252.045c-23.877 0-42.983-19.103-42.983-42.983v-252.042c0-23.881 19.106-42.978 42.983-42.978h252.044c23.879 0 42.978 19.098 42.978 42.978v252.042h0.001zM489.714 8.321c0-56.243-45.635-101.878-101.881-101.878h-251.51c-56.245 0-101.881 45.635-101.881 101.878v252.045c0 56.246 45.635 101.881 101.881 101.881h251.51c56.245 0 101.881-45.634 101.881-101.881v-252.045zM431.342 260.365c0 23.881-19.099 42.983-42.978 42.983h-252.043c-23.879 0-42.982-19.103-42.982-42.983v-252.045c0-23.878 19.103-42.977 42.982-42.977h251.51c23.879 0 42.982 19.099 42.982 42.977v252.045h0.527zM989.557 8.321c0-56.243-45.635-101.878-101.879-101.878h-252.045c-56.246 0-101.879 45.635-101.879 101.878v252.045c0 56.246 45.633 101.881 101.879 101.881h252.044c56.244 0 101.879-45.634 101.879-101.881v-252.045h0.001zM930.656 260.365c0 23.881-19.099 42.983-42.978 42.983h-252.045c-23.877 0-42.983-19.103-42.983-42.983v-252.045c0-23.878 19.106-42.977 42.983-42.977h252.044c23.879 0 42.978 19.099 42.978 42.977v252.045h0.001zM930.656 260.365z"  horiz-adv-x="1024" />

    
    <glyph glyph-name="dilanxianxingiconyihuifu_huabanfuben" unicode="&#58888;" d="M129.5 406.5h296c35.29 0 64 28.71 64 64v296c0 35.29-28.71 64-64 64h-296c-35.29 0-64-28.71-64-64v-296c0-35.29 28.71-64 64-64z m0 360h296l0.04-295.999-0.04-0.001h-296v296zM426 362H130c-35.29 0-64-28.71-64-64v-296c0-35.29 28.71-64 64-64h296c35.29 0 64 28.71 64 64V298c0 35.29-28.71 64-64 64z m0-360H130V298h296l0.04-295.999-0.04-0.001zM895 362H599c-35.29 0-64-28.71-64-64v-296c0-35.29 28.71-64 64-64h296c35.29 0 64 28.71 64 64V298c0 35.29-28.71 64-64 64z m0-360H599V298h296l0.04-295.999-0.04-0.001zM747 406.5c116.897 0 212 95.103 212 212s-95.103 212-212 212-212-95.103-212-212 95.103-212 212-212z m0 360c81.607 0 148-66.393 148-148s-66.393-148-148-148-148 66.393-148 148 66.393 148 148 148z"  horiz-adv-x="1024" />

    
    <glyph glyph-name="fenlei" unicode="&#59187;" d="M205.18181848 805.875h153.40909076a115.05681848 115.05681848 0 0 0 115.05681766-115.05681848v-153.40909076a115.05681848 115.05681848 0 0 0-115.05681765-115.05681766H205.18181848a115.05681848 115.05681848 0 0 0-115.05681848 115.05681765V690.81818152a115.05681848 115.05681848 0 0 0 115.05681848 115.05681848z m0-61.36363613A53.69318152 53.69318152 0 0 1 151.48863613 690.81818152v-153.40909076A53.69318152 53.69318152 0 0 1 205.18181848 483.71590924h153.40909076A53.69318152 53.69318152 0 0 1 412.28409076 537.40909075V690.81818152A53.69318152 53.69318152 0 0 1 358.59090925 744.51136387H205.18181848zM205.18181848 345.64772689999995h153.40909076a115.05681848 115.05681848 0 0 0 115.05681766-115.05681765v-153.40909077a115.05681848 115.05681848 0 0 0-115.05681765-115.05681848H205.18181848a115.05681848 115.05681848 0 0 0-115.05681848 115.05681848v153.40909077a115.05681848 115.05681848 0 0 0 115.05681848 115.05681765z m0-61.36363615A53.69318152 53.69318152 0 0 1 151.48863613 230.59090924999998v-153.40909077A53.69318152 53.69318152 0 0 1 205.18181848 23.48863613000003h153.40909076A53.69318152 53.69318152 0 0 1 412.28409076 77.18181847999995v153.40909076A53.69318152 53.69318152 0 0 1 358.59090925 284.28409076H205.18181848zM665.40909075 805.875h153.40909077a115.05681848 115.05681848 0 0 0 115.05681848-115.05681848v-153.40909076a115.05681848 115.05681848 0 0 0-115.05681848-115.05681766h-153.40909076a115.05681848 115.05681848 0 0 0-115.05681766 115.05681765V690.81818152a115.05681848 115.05681848 0 0 0 115.05681765 115.05681848z m1e-8-61.36363613A53.69318152 53.69318152 0 0 1 611.71590924 690.81818152v-153.40909076A53.69318152 53.69318152 0 0 1 665.40909075 483.71590924h153.40909077A53.69318152 53.69318152 0 0 1 872.51136387 537.40909075V690.81818152A53.69318152 53.69318152 0 0 1 818.81818152 744.51136387h-153.40909076zM607.88068152 257.4375h268.46590923a30.68181848 30.68181848 0 1 1 1e-8 61.36363613h-268.46590924a30.68181848 30.68181848 0 1 1 0-61.36363613zM607.88068152 123.20454538000001h191.76136386a30.68181848 30.68181848 0 1 1 0 61.36363614h-191.76136386a30.68181848 30.68181848 0 1 1 0-61.36363614zM607.88068152-11.028409239999974h115.05681848a30.68181848 30.68181848 0 1 1 0 61.36363614h-115.05681848a30.68181848 30.68181848 0 1 1 0-61.36363615z"  horiz-adv-x="1024" />

    
    <glyph glyph-name="huopinleixing-" unicode="&#58930;" d="M413.013333 820.906667h-266.24C107.178667 820.906667 75.093333 788.821333 75.093333 749.226667v-265.557334C75.093333 443.392 107.178667 411.306667 146.773333 411.306667h265.557334C452.608 411.306667 484.693333 443.392 484.693333 482.986667v266.24C484.693333 788.821333 452.608 820.906667 413.013333 820.906667zM430.08 518.485333c0-29.354667-23.893333-52.565333-52.565333-52.565333H182.272c-29.354667 0-52.565333 23.893333-52.565333 52.565333V713.728c0 29.354667 23.893333 52.565333 52.565333 52.565333h194.56c29.354667 0 52.565333-23.893333 52.565333-52.565333v-195.242667zM413.013333 356.693333h-266.24C107.178667 356.693333 75.093333 324.608 75.093333 285.013333v-265.557333c0-39.594667 32.085333-71.68 71.68-71.68h265.557334c39.594667 0 71.68 32.085333 71.68 71.68V285.013333C484.693333 324.608 452.608 356.693333 413.013333 356.693333z m17.066667-302.421333c0-29.354667-23.893333-52.565333-52.565333-52.565333H182.272c-29.354667 0-52.565333 23.893333-52.565333 52.565333V249.514667c0 29.354667 23.893333 52.565333 52.565333 52.565333h194.56c29.354667 0 52.565333-23.893333 52.565333-52.565333v-195.242667zM877.226667 820.906667h-266.24C571.392 820.906667 539.306667 788.821333 539.306667 749.226667v-265.557334C539.306667 443.392 571.392 411.306667 610.986667 411.306667h265.557333c39.594667 0 71.68 32.085333 71.68 71.68v266.24c0.682667 39.594667-31.402667 71.68-70.997333 71.68z m17.066666-302.421334c0-29.354667-23.893333-52.565333-52.565333-52.565333H646.485333c-29.354667 0-52.565333 23.893333-52.565333 52.565333V713.728c0 29.354667 23.893333 52.565333 52.565333 52.565333h194.56c29.354667 0 52.565333-23.893333 52.565334-52.565333v-195.242667zM948.906667 329.386667c0 15.018667-12.288 27.306667-27.306667 27.306666H566.613333c-15.018667 0-27.306667-12.288-27.306666-27.306666s12.288-27.306667 27.306666-27.306667h354.986667c15.018667 0 27.306667 12.288 27.306667 27.306667zM875.861333 151.893333c0 15.018667-12.288 27.306667-27.306666 27.306667H566.613333c-15.018667 0-27.306667-12.288-27.306666-27.306667s12.288-27.306667 27.306666-27.306666h281.941334c15.018667 0 27.306667 12.288 27.306666 27.306666zM720.896-25.6c0 15.018667-12.288 27.306667-27.306667 27.306667H566.613333c-15.018667 0-27.306667-12.288-27.306666-27.306667s12.288-27.306667 27.306666-27.306667h126.976c15.701333 0 27.306667 12.288 27.306667 27.306667z"  horiz-adv-x="1024" />

    
    <glyph glyph-name="fenlei1" unicode="&#58941;" d="M320.545707 416.820915H116.47185A116.610043 116.610043 0 0 0 0 533.292765V737.366622a116.610043 116.610043 0 0 0 116.47185 116.47185h204.073857a116.610043 116.610043 0 0 0 116.471849-116.47185v-204.073857a116.610043 116.610043 0 0 0-116.471849-116.47185zM116.47185 807.254757a69.976076 69.976076 0 0 1-69.888135-69.888135v-204.073857a69.976076 69.976076 0 0 1 69.888135-69.888135h204.073857a69.976076 69.976076 0 0 1 69.888135 69.888135V737.366622a69.976076 69.976076 0 0 1-69.888135 69.888135zM320.633648-128H116.559791A116.610043 116.610043 0 0 0 0.087941-11.578402V192.55827a116.610043 116.610043 0 0 0 116.47185 116.484412h204.073857a116.622606 116.622606 0 0 0 116.484413-116.484412v-204.136672a116.610043 116.610043 0 0 0-116.484413-116.421598zM116.559791 262.446405a69.976076 69.976076 0 0 1-69.888135-69.888135v-204.136672a69.976076 69.976076 0 0 1 69.888135-69.837883h204.073857a69.963513 69.963513 0 0 1 69.888135 69.837883V192.55827a69.963513 69.963513 0 0 1-69.888135 69.888135zM865.906832-128H661.795286a116.610043 116.610043 0 0 0-116.43416 116.421598V192.55827a116.622606 116.622606 0 0 0 116.43416 116.484412h204.111546a116.622606 116.622606 0 0 0 116.484413-116.484412v-204.136672a116.610043 116.610043 0 0 0-116.484413-116.421598zM661.795286 262.446405a69.963513 69.963513 0 0 1-69.888135-69.888135v-204.136672a69.963513 69.963513 0 0 1 69.888135-69.837883h204.111546a69.963513 69.963513 0 0 1 69.888135 69.837883V192.55827a69.963513 69.963513 0 0 1-69.888135 69.888135zM763.781963 374.659387a115.680379 115.680379 0 0 0-82.350661 34.008122L537.119778 552.96647a116.635169 116.635169 0 0 0 0 164.726447L681.431302 861.991878a116.710547 116.710547 0 0 0 164.701321 0l144.311524-144.298961a116.635169 116.635169 0 0 0 0-164.726447L846.132623 408.667509a115.579875 115.579875 0 0 0-82.35066-34.008122z m0 474.744335a69.435866 69.435866 0 0 1-49.410397-20.352108L570.085169 684.752653a69.976076 69.976076 0 0 1 0-98.845919l144.286397-144.298961c26.269295-26.281858 72.589186-26.231606 98.820793 0l144.311524 144.298961a69.976076 69.976076 0 0 1 0 98.845919L813.192359 829.051614a69.398177 69.398177 0 0 1-49.410396 20.352108z"  horiz-adv-x="1024" />

    
    <glyph glyph-name="5" unicode="&#59084;" d="M697.673956 327.111111 314.948267 327.111111c-23.665778 0-43.383467 18.147556-45.351822 41.733689l-5.848178 70.155378C262.633244 452.266667 273.112178 463.644444 286.424178 463.644444l439.785244 0c13.312 0 23.779556-11.377778 22.675911-24.644267l-5.848178-70.155378C741.0688 345.258667 721.351111 327.111111 697.673956 327.111111zM694.044444 304.355556 318.577778 304.355556l45.511111-341.333333 284.444444 0L694.044444 304.355556zM508.256711 634.436267c42.382222 0 76.731733 34.360889 76.731733 76.731733 0 42.382222-34.360889 76.731733-76.731733 76.731733s-76.731733-34.360889-76.731733-76.731733C431.5136 668.797156 465.874489 634.436267 508.256711 634.436267zM682.666667 486.4l-16.804978 75.036444c-4.266667 19.080533-19.8656 33.553067-39.207822 36.397511l-68.232533 10.0352-33.792-77.528178-4.357689 38.206578c-0.113778 1.206044-1.137778 2.127644-2.343822 2.127644l-19.308089 0c-1.2288 0-2.241422-0.932978-2.3552-2.1504l-3.959467-39.162311-34.212978 78.495289-68.232533-10.0352c-19.342222-2.844444-34.941156-17.316978-39.207822-36.397511L333.846756 486.4 682.666667 486.4zM484.647822 604.922311c0.022756-7.088356 5.870933-16.531911 9.409422-20.0704 3.538489-3.538489 9.477689-3.538489 14.199467-3.538489 4.721778 0 10.660978 0 14.199467 3.538489 3.538489 3.538489 9.386667 12.982044 9.409422 20.0704 0.034133 8.260267-14.415644 9.443556-23.608889 9.443556C499.052089 614.365867 484.613689 613.193956 484.647822 604.922311z"  horiz-adv-x="1024" />

    
    <glyph glyph-name="nianhuiyanjiang" unicode="&#58924;" d="M202.8 650.8l90.4 76.4c4.8 4 4.8 10.8 0.8 15.2L260 776c-4.4 4.4-11.2 4-15.2-0.8L169.2 684.4c-4-4.8-11.2-19.6 1.2-32.4 13.6-13.6 27.6-5.2 32.4-1.2z m90.8 90.8c4.4-4.4 12.8-6 18.4-4 0 0 22.4 8.8 32.4 18.4 19.6 19.6 20 51.6 0.8 70.8-19.2 19.2-50.8 18.8-70.8-0.8-10-10-18.4-32.4-18.4-32.4-2-5.6-0.4-14 4-18.4l33.6-33.6zM689.6 721.6c-4.4 3.6-4.8 10-0.4 14l31.6 31.6c4 4 10.4 3.6 14-0.8l70.8-84.8c3.6-4.4 10.8-18.4-1.2-30-12.8-12.8-25.6-4.8-30-1.2l-84.8 71.2z m-17.6 9.6s-21.2 8-30.4 17.2c-18.4 18.4-18.8 48-0.8 66s47.6 17.6 66-0.8c9.2-9.2 17.2-30.4 17.2-30.4 2-5.2 0.4-13.2-3.6-17.2l-31.6-31.6c-3.6-3.6-11.6-5.2-16.8-3.2zM513.6 680c-0.4-5.6-4-19.2-20.8-19.2-15.6 0-20.4 14-20.8 19.2l-9.6 103.6c-0.4 5.2 3.6 10 8.8 10h42c5.6 0 9.6-4.4 8.8-9.6l-8.4-104z m14 122c-2-4.8-8.4-9.2-14-9.2h-42c-5.6 0-11.6 4-14 8.8 0 0-8.8 19.6-8.8 31.6 0 24.8 19.2 44.4 43.2 44.4 24 0 43.2-20 43.2-44.4 1.2-11.6-7.6-31.2-7.6-31.2zM267.2 729.6h26.8v-99.2h-26.8zM692.4 722.4h26.8v-111.2h-26.8zM478.4 674h26.8v-48.8h-26.8zM99.6 635.2h802c22 0 40-18 40-40 0-2.4 0-4.4-0.4-6.8l-13.6-78.8c-3.2-19.2-20-33.2-39.6-33.2H112.4c-19.6 0-36.4 14.4-39.6 33.6L60 588.8c-3.6 22 11.2 42.4 33.2 46 2.4 0.4 4.4 0.4 6.4 0.4zM180.4 420.8h637.2c22 0 40-18 40-40 0-1.6 0-3.6-0.4-5.2l-58-450.8c-2.4-20-19.6-34.8-39.6-34.8H238.4c-20 0-37.2 14.8-39.6 34.8L140.8 375.6c-2.8 22 12.8 42 34.4 44.8 1.6 0 3.6 0.4 5.2 0.4zM500 248l30.8-58.4 62-12.4-43.6-49.2 7.2-65.6-56.4 29.2-58.4-29.2 7.2 65.6-43.6 49.2 62 12.4L500 248"  horiz-adv-x="1024" />

    
    <glyph glyph-name="yanjiangzhe" unicode="&#58996;" d="M840.51491965 693.97605761l-19.48151603 19.48151604c-49.1751171 49.1751171-128.51516225 49.1751171-177.53317036 0.15710901l-52.00307912-52.00307911L788.51184055 464.75402617l52.0030791 52.0030791c49.01800811 48.8608991 49.01800811 128.35805326 0 177.21895234zM566.3597141 636.4741635099999C530.69597103 600.81042043 521.42654002 549.27866832 537.60876705 504.97393023l-0.157109-0.15710898-284.99572656-285.30994457c-5.49881501-5.49881501-5.49881501-14.61113702 0-20.26706105l27.49407505-27.49407505-64.57179914-64.57179914L233.91706944 88.63507941l64.41469013 64.41469014 27.49407506-27.49407508c2.82796201-2.82796201 6.28436002-4.08483399 10.05497602-4.08483399 4.08483399 0 7.54123201 1.25687199 10.36919402 4.08483399l142.34075427 142.34075431v-213.66824043h65.98578015V334.03933791L631.40284023 410.70853004c44.46184709-16.33933604 96.15070819-6.91279601 131.81445127 28.75094707l0.78554499 0.785545L566.9881501 637.25970851l-0.628436-0.785545zM554.73364807 374.57345998000005l-65.98578011-65.98578012-152.70994831-152.70994831-53.4170601 53.57416911 268.34217254 268.34217253c4.39905201-6.59857803 9.58364903-12.88293803 15.39668201-18.85308005l19.48151604-19.48151603c5.81303301-5.81303301 12.09739302-10.84052103 18.53886204-15.23957304L554.73364807 374.57345998000005z"  horiz-adv-x="1024" />

    
    <glyph glyph-name="huabankaobei-" unicode="&#58990;" d="M514.039841 541.31251c80.426837 0 143.425275 85.999681 143.425275 195.783904C657.465116 834.05004 603.837705 891.920319 514.039841 891.920319s-143.425275-57.870279-143.425275-154.823905c0-109.784223 62.998438-195.783904 143.425275-195.783904z m0 286.862789c54.378072 0 79.680255-28.945339 79.680255-91.078885 0-71.55761-36.47643-132.018486-79.680255-132.018486s-79.680255 60.460876-79.680255 132.018486c0 62.133546 25.302183 91.078884 79.680255 91.078885z m500.617689-519.30263l-63.74502 63.74502a31.862311 31.862311 0 0 1-45.06008-45.060079l54.40255-54.422949v-50.526852h-127.571633c1.713466 60.073307-1.427888 172.019761-44.768383 218.670916-14.570582 15.727171-33.02706 24.029323-53.288797 24.029323l-7.127203-0.020399c-32.025498 0.244781-55.342916-0.305976-76.630693 30.434423a31.878629 31.878629 0 0 1-52.423904-36.288765c40.494916-58.400637 91.633721-57.747888 129.421768-57.890678l6.753913 0.020399c1.2749 0 3.206629 0 6.596844-3.630916 22.817657-24.559681 29.508335-108.968287 27.705116-175.324303H705.2749v63.724621a31.87251 31.87251 0 1 1-63.74502 0v-63.724621h-95.617529v95.60733a31.87251 31.87251 0 1 1-63.74502 0v-95.60733H386.549801v63.724621a31.87251 31.87251 0 1 1-63.74502 0v-63.724621h-63.653227c-1.803219 66.356016 4.895618 150.764622 27.705115 175.324303 3.390215 3.630916 5.321944 3.630916 6.596845 3.630916l6.753912-0.020399c37.006789 0.305976 88.896255-0.591554 129.389132 57.890678a31.87455 31.87455 0 0 1-52.413705 36.288765c-21.322454-30.781195-44.574598-30.250837-76.602136-30.434423l-7.127203 0.020399c-20.261737 0-38.718215-8.302151-53.288797-24.029323-43.332335-46.651155-46.485928-158.59761-44.776542-218.670916H67.824701v50.526852l54.40663 54.422949a31.864351 31.864351 0 0 1-45.068239 45.060079l-63.74502-63.74502A31.862311 31.862311 0 0 1 4.079681 286.33243v-191.214661a31.858231 31.858231 0 0 1 31.87251-31.882709H131.569721v-159.372749A31.854151 31.854151 0 0 1 163.442231-128H864.647649a31.854151 31.854151 0 0 1 31.862311 31.862311v159.372749h95.627729A31.858231 31.858231 0 0 1 1024 95.117769v191.214661a31.86639 31.86639 0 0 1-9.34247 22.540239z m-181.89259-373.127649H195.314741v127.49004h637.450199v-127.49004z m127.49004 191.23506H67.824701v31.86231h892.430279V126.98008zM482.167331 413.82247h63.74502v63.765418h-63.74502v-63.765418z"  horiz-adv-x="1028" />

    
    <glyph glyph-name="goldcup" unicode="&#58913;" d="M798.71 396.050c-31.67-105.432-134.432-194.882-250.14-194.882v-255.991h109.71c47.139 0 109.71-26.038 109.71-73.14h-511.982c0 0 26.001 73.14 73.14 73.14h146.281v255.991c-115.745 0-218.47 89.451-250.14 194.882-98.886 53.575-225.272 140.722-225.272 243.959 0 83.38 30.975 110.186 73.14 109.71 40.922-0.512 146.281 0 146.281 0v146.281h585.122v-146.281c0 0 102.031 0 146.281 0 41.653 0 73.14-24.721 73.14-109.71 0-108.467-126.386-190.384-225.272-243.959zM213.332 605.085c0 0-15.030 73.506-85.318 77.565-23.88 1.426-42.897-12.288-42.677-42.641 0.695-84.404 127.996-127.996 127.996-127.996v93.071zM731.421 822.86h-438.842v-292.598c-1.353-170.197 101.592-255.954 219.421-255.954s219.421 90.438 219.421 255.954v292.598zM895.987 682.65c-70.324-3.072-85.318-120.243-85.318-120.243v-50.394c0 0 126.13 44.616 127.996 127.996 0.695 31.816-10.825 44.067-42.677 42.641z"  horiz-adv-x="1024" />

    
    <glyph glyph-name="rongyujiangbei" unicode="&#58909;" d="M507 175.1c-64.1 0-124.4 25-169.7 70.3C292 290.7 267 351 267 415.1V743c0 52.9 43.1 96 96 96h288c52.9 0 96-43.1 96-96v-327.9c0-64.1-25-124.4-70.3-169.7-45.3-45.4-105.6-70.3-169.7-70.3zM363 775c-17.6 0-32-14.4-32-32v-327.9c0-97 79-176 176-176s176 79 176 176V743c0 17.6-14.4 32-32 32H363zM507-57c-17.7 0-32 14.3-32 32V207.1c0 17.7 14.3 32 32 32s32-14.3 32-32V-25c0-17.7-14.3-32-32-32zM299 352.5h-5.9c-97 0-176 79-176 176V569c0 52.9 43.1 96 96 96H299c17.7 0 32-14.3 32-32v-248.5c0-17.6-14.3-32-32-32zM213.1 601c-17.6 0-32-14.4-32-32v-40.5c0-52.8 36.7-97.2 85.9-108.9V601h-53.9zM715 352.5c-17.7 0-32 14.3-32 32V633c0 17.7 14.3 32 32 32h80c52.9 0 96-43.1 96-96v-40.5c0-97-79-176-176-176zM747 601v-179.8c46.2 13.8 80 56.7 80 107.3V569c0 17.6-14.4 32-32 32h-48zM715-57H299c-17.7 0-32 14.3-32 32s14.3 32 32 32h416c17.7 0 32-14.3 32-32s-14.3-32-32-32z"  horiz-adv-x="1024" />

    
    <glyph glyph-name="huabanzhuti" unicode="&#58980;" d="M511.6 783.5c-291.8 0-399.7-255-399.7-398s103.8-400.6 391.3-400.6c0 0 71.4-1.3 71.4 63.2 0 64.4-32.1 43.8-32.1 90.1 0 46.4 32.1 67 47.5 67 15.4 0 117-7.7 173.6 14.3 56.5 21.7 147.7 91.3 147.7 209.8 0 104.3-107.9 354.2-399.7 354.2zM267.9 384.1c-18.4 0-36.1 7.3-49.2 20.4-13 13.1-20.3 30.8-20.3 49.2-0.7 25.3 12.3 48.9 34.1 61.8 21.8 12.9 48.8 12.9 70.6 0 21.8-12.9 34.8-36.5 34.1-61.8 0.2-38.3-30.9-69.5-69.3-69.6z m130.9 172.2c-18.4 0-36.1 7.3-49.1 20.4-13 13-20.3 30.7-20.3 49.2 0 38.3 31.1 69.4 69.4 69.4 38.3 0 69.4-31.1 69.4-69.4 0.1-38.5-31-69.6-69.4-69.6z m222.6 0c-38.3 0-69.4 31.1-69.4 69.6-0.7 25.3 12.3 48.9 34.1 61.8a69.7 69.7 0 0 0 70.6 0c21.8-12.9 34.8-36.5 34.1-61.8 0.1-38.5-31-69.6-69.4-69.6z m132.2-172.2c-38.3 0-69.4 31.1-69.4 69.6-0.7 25.3 12.3 48.9 34.1 61.8 21.8 12.9 48.8 12.9 70.6 0 21.8-12.9 34.8-36.5 34.1-61.8 0.1-18.4-7.2-36.1-20.2-49.2-13.1-13-30.7-20.4-49.2-20.4z m0 0"  horiz-adv-x="1024" />

    
    <glyph glyph-name="huaban" unicode="&#58943;" d="M512-128C229.888-128 0 101.888 0 384S229.888 896 512 896s512-229.888 512-512c0-30.72-2.56-60.928-8.192-90.624-11.776-66.56-95.232-67.584-175.616-68.608-49.664-0.512-111.616-1.536-127.488-20.992-24.576-29.696-22.528-85.504-20.48-139.776 3.072-77.312 6.144-164.352-77.312-181.76-33.28-6.656-68.096-10.24-102.912-10.24z m0 970.24c-252.416 0-458.24-205.312-458.24-458.24s205.312-458.24 458.24-458.24c31.232 0 61.952 3.072 92.16 9.216 34.816 7.168 37.376 46.08 34.304 126.976-2.048 61.44-4.608 130.56 32.768 176.128 32.256 38.912 98.304 39.424 168.448 40.448 50.176 0.512 118.784 1.536 122.88 24.576 4.608 26.624 7.168 53.76 7.168 80.896 0.512 252.416-205.312 458.24-457.728 458.24zM462.336 576.512c-61.44 0-111.616 50.176-111.616 111.616s50.176 111.616 111.616 111.616 111.616-50.176 111.616-111.616-49.664-111.616-111.616-111.616z m0 169.472c-31.744 0-57.856-26.112-57.856-57.856s26.112-57.856 57.856-57.856c31.744 0 57.856 26.112 57.856 57.856s-25.6 57.856-57.856 57.856zM246.784 420.864c-54.784 0-99.84 44.544-99.84 99.84 0 54.784 44.544 99.84 99.84 99.84 54.784 0 99.84-44.544 99.84-99.84-0.512-54.784-45.056-99.84-99.84-99.84z m0 145.92c-25.088 0-45.568-20.48-45.568-45.568s20.48-45.568 45.568-45.568 45.568 20.48 45.568 45.568-20.48 45.568-45.568 45.568zM738.816 411.648c-68.608 0-123.904 55.808-123.904 123.904s55.808 123.904 123.904 123.904c68.096 0 123.904-55.808 123.904-123.904s-55.808-123.904-123.904-123.904z m0 194.048c-38.4 0-70.144-31.232-70.144-70.144 0-38.4 31.232-70.144 70.144-70.144S808.96 496.64 808.96 535.552c0 38.4-31.744 70.144-70.144 70.144zM270.848 202.752c-41.472 0-75.264 33.792-75.264 75.264S229.376 353.28 270.848 353.28s75.264-33.792 75.264-75.264-33.792-75.264-75.264-75.264z m0 97.28c-11.776 0-21.504-9.728-21.504-21.504s9.728-21.504 21.504-21.504c11.776 0 21.504 9.728 21.504 21.504s-9.728 21.504-21.504 21.504zM464.896 69.632c-34.816 0-63.488 28.672-63.488 63.488 0 34.816 28.16 63.488 63.488 63.488s63.488-28.16 63.488-63.488-28.672-63.488-63.488-63.488z m0 72.704c-5.12 0-9.216-4.096-9.216-9.216s4.096-9.216 9.216-9.216 9.216 4.096 9.216 9.216c0 4.608-4.096 9.216-9.216 9.216z"  horiz-adv-x="1024" />

    
    <glyph glyph-name="huaban1" unicode="&#59063;" d="M606.5 757.3C304.4 753.7 11.4 529.9 72 241.5c32.8-156.3 121.9-63.5 159.6 20.1 37.1 82.7 140.7 77 128.7-25.4-43.5-371.7 309.2-209 489.9-41.7 237.9 220.3 58.2 566.4-243.7 562.8zM229.7 381.7c-39.9-10.3-79.3 8.1-87.9 41.4-8.6 33.3 16.8 68.6 56.7 79 39.9 10.3 79.3-8.2 87.8-41.4 8.8-33.4-16.7-68.7-56.6-79zM365.3 504c-42.8 19.8-63.1 66.8-45.4 104.8 17.7 38.1 66.7 52.9 109.3 33s63-66.8 45.3-104.8c-17.6-38-66.6-52.9-109.2-33zM597 142.5c-47.3-20.4-98.9-6.4-115.3 31.4-16.4 37.8 8.7 85.2 56 105.6 47.3 20.4 98.9 6.3 115.3-31.5 16.4-37.8-8.7-85.1-56-105.5z m12.1 449.1c-31.7 0-57.5 25.8-57.5 57.5s25.7 57.5 57.5 57.5c31.7 0 57.4-25.8 57.4-57.5s-25.7-57.5-57.4-57.5z m219.5-103.8c-32-12.6-70.1 8.3-85.2 46.7-15.1 38.4-1.5 79.7 30.4 92.3 31.8 12.6 70-8.3 85.1-46.6 15.3-38.5 1.7-79.7-30.3-92.4z"  horiz-adv-x="1024" />

    
    <glyph glyph-name="fenleiguanli" unicode="&#58916;" d="M572.235294-97.882353a60.235294 60.235294 0 0 0-60.235294 60.235294v301.176471a60.235294 60.235294 0 0 0 60.235294 60.235294h301.176471a60.235294 60.235294 0 0 0 60.235294-60.235294v-301.176471a60.235294 60.235294 0 0 0-60.235294-60.235294z m60.235294 120.470588h180.705883v180.705883h-180.705883z m-542.117647-120.470588a60.235294 60.235294 0 0 0-60.235294 60.235294v301.176471a60.235294 60.235294 0 0 0 60.235294 60.235294h301.176471a60.235294 60.235294 0 0 0 60.235294-60.235294v-301.176471a60.235294 60.235294 0 0 0-60.235294-60.235294z m60.235294 120.470588h180.705883v180.705883h-180.705883z m361.411765 602.352941a240.941176 240.941176 0 1 0 240.941176-240.941176 240.941176 240.941176 0 0 0-240.941176 240.941176z m120.470588 0a120.470588 120.470588 0 1 1 120.470588 120.470589 120.470588 120.470588 0 0 1-120.470588-120.470589z m-542.117647-240.941176a60.235294 60.235294 0 0 0-60.235294 60.235294v301.176471a60.235294 60.235294 0 0 0 60.235294 60.235294h301.176471a60.235294 60.235294 0 0 0 60.235294-60.235294v-301.176471a60.235294 60.235294 0 0 0-60.235294-60.235294z m60.235294 120.470588h180.705883v180.705883h-180.705883z"  horiz-adv-x="1024" />

    
    <glyph glyph-name="shuben" unicode="&#59298;" d="M715.441919 711.268562c-87.24834 0-162.081047-14.891388-201.099269-39.869071-39.043819 25.00328-113.852976 39.869071-201.099269 39.869071-108.446862 0-235.112739-24.377686-235.11274-92.953429v-525.162046a33.912106 33.912106 0 0 1 12.113588-26.00464c6.107476-5.155263 13.890028-8.033404 21.899883-8.033404 1.927976 0 3.853904 0.149487 5.78188 0.549827 58.939959 10.185611 126.51639 15.591726 195.318413 15.591725 68.87779 0 136.376406-5.406115 195.243668-15.591725 0.701361-0.149487 1.376102-0.149487 2.00272-0.224231l0.776105-0.074744c0.701361-0.074744 1.376102-0.149487 1.927976-0.149487 2.152207-0.301022 4.22967 0 6.331707 0.375766l0.626618 0.074743c58.939959 10.185611 126.441647 15.591726 195.318412 15.591726s136.376406-5.406115 195.318413-15.591726c1.851185-0.301022 3.853904-0.549826 5.78188-0.549826 8.033404 0 15.743261 2.853568 21.899883 8.033404a33.909034 33.909034 0 0 1 12.113587 26.003616V618.316157c-0.007167 68.600317-126.673045 92.952405-235.143455 92.952405zM515.029677 47.581999c-0.910234 0-1.821492 0.045051-2.742989 0.146415a41.96394 41.96394 0 0 0-2.309885 0.20273c-1.944358 0.162798-2.917049 0.269282-3.917386 0.483274-57.85464 9.99824-124.689779 15.331659-192.811941 15.331658-68.10578 0-134.963444-5.333419-193.357672-15.42176-2.197258-0.460748-4.850145-0.719791-7.744668-0.719792-10.695506 0-21.109444 3.816021-29.326124 10.745677a45.399075 45.399075 0 0 0-16.197866 34.799814V618.313085c0 77.019726 127.398979 104.462924 246.620187 104.462924 84.719343 0 158.984818-14.107092 201.102341-37.953381 42.128786 23.846289 116.38914 37.953381 201.096197 37.953381 119.238613 0 246.647831-27.443198 246.653974-104.462924v-525.156926a45.365287 45.365287 0 0 0-16.214248-34.811078c-10.178444-8.564801-24.250724-12.094133-36.919257-10.043291-58.494569 10.110868-125.358376 15.444286-193.486681 15.444286-68.133425 0-134.997232-5.333419-193.357672-15.42176-0.213992-0.038908-1.050506-0.140272-1.264498-0.162798-1.471323-0.287712-3.634793-0.579519-5.821812-0.579519z m-201.782201 39.184091c69.415329 0 137.610188-5.451165 197.201338-15.758619 0.157678-0.011263 1.219447-0.117747 1.377125-0.135153l1.545043-0.151535c0.314333-0.016382 1.118083-0.061433 1.43344-0.106484l0.225255-0.011263c0.826275 0 1.641288 0.174061 2.467563 0.320477 0.230374 0.038908 1.095557 0.146416 1.332075 0.17406 59.001392 10.217352 127.218775 15.669541 196.645368 15.669541 69.420449 0 137.638856-5.451165 197.280176-15.758619 5.67642-0.898971 13.190715 0.652215 18.305022 4.951509a22.404659 22.404659 0 0 1 8.013951 17.198202V618.313085c-0.005119 56.258403-112.32022 81.441887-223.633961 81.441886-84.819684 0-157.675268-14.224839-194.891452-38.054745a11.527925 11.527925 0 0 0-12.409491 0c-37.205945 23.829907-110.065625 38.054746-194.897595 38.054745-111.297359 0-223.600173-25.184507-223.600173-81.441886v-525.16307a22.443566 22.443566 0 0 1 8.013951-17.198202c4.075064-3.439231 9.217016-5.328299 14.489001-5.328299 1.309549 0 2.438895 0.101365 3.450493 0.309214 60.042683 10.381173 128.260067 15.833363 197.652871 15.833362zM882.65775 609.93156V129.895212c-51.533172 6.782216-109.1472 10.410866-167.162589 10.410866S599.866767 136.752172 548.333595 129.895212V609.93156c12.814949 10.336122 68.726255 30.534308 167.162589 30.534308s154.373238-20.198186 167.161566-30.534308zM882.658774 118.385717c-0.50068 0-1.000336 0.033788-1.501016 0.101364-102.973171 13.556242-230.422321 13.432352-331.305741 0-3.271314-0.460748-6.60406 0.562113-9.099269 2.748109a11.519734 11.519734 0 0 0-3.928648 8.661046V609.933607c0 3.479162 1.573712 6.771978 4.282912 8.958997 16.489673 13.297199 76.541571 33.08583 174.389172 33.08583 97.903915 0 157.933287-19.788632 174.395316-33.091973a11.512567 11.512567 0 0 0 4.276769-8.952854V129.895212a11.507447 11.507447 0 0 0-11.509495-11.509495z m-167.161566 33.428832c53.341354 0 106.845505-3.057322 155.652071-8.874014V603.650023c-15.146336 8.09279-63.766554 25.307374-155.652071 25.307374-91.834323 0-140.482186-17.214584-155.651047-25.307374v-460.699249c48.349913 5.806454 101.854064 8.863775 155.651047 8.863775zM480.383445 609.93156V129.895212c-52.232486 6.932728-109.923305 10.561377-167.16259 10.561377s-114.928056-3.62865-167.16259-10.561377V609.93156c12.814949 10.336122 68.726255 30.534308 167.16259 30.534308 98.436335 0.100341 154.424432-20.198186 167.16259-30.534308zM480.381397 118.385717c-0.505799 0-1.011599 0.033788-1.517398 0.101364-103.058153 13.673989-228.208681 13.685251-331.288335 0-3.287696-0.460748-6.60406 0.562113-9.099269 2.748109a11.519734 11.519734 0 0 0-3.928648 8.661046V609.933607c0 3.479162 1.573712 6.771978 4.282912 8.958997 16.489673 13.297199 76.541571 33.08583 174.389172 33.08583 98.218248 0 158.017246-19.799894 174.417842-33.108355a11.511543 11.511543 0 0 0 4.254243-8.936472V129.895212a11.507447 11.507447 0 0 0-11.510519-11.509495zM157.56776 603.650023v-460.699249c98.117907 11.813589 213.196474 11.813589 311.303118 0V603.746268c-17.321068 9.476059-70.460716 25.212152-154.959924 25.212153-92.446606 0-141.174332-17.214584-156.343194-25.308398zM599.75414 484.153391c0-8.784936 7.182556-15.967492 15.967491-15.967492h203.027245c8.784936 0 15.967492 7.182556 15.967492 15.967492 0 8.784936-7.182556 15.967492-15.967492 15.967491h-203.026221c-8.809509 0.001024-15.968516-7.182556-15.968515-15.967491zM818.674132 401.135745h-203.026221c-8.784936 0-15.967492-7.182556-15.967491-15.967492 0-8.784936 7.182556-15.967492 15.967491-15.967491h203.027245c8.784936 0 15.967492 7.182556 15.967492 15.967491 0 8.784936-7.182556 15.967492-15.968516 15.967492zM818.674132 302.17518h-203.026221c-8.784936 0-15.967492-7.182556-15.967491-15.967491 0-8.784936 7.182556-15.967492 15.967491-15.967492h203.027245c8.784936 0 15.967492 7.182556 15.967492 15.967492 0 8.784936-7.182556 15.967492-15.968516 15.967491zM209.968164 270.239173h203.027245c8.784936 0 15.967492 7.182556 15.967491 15.967492 0 8.784936-7.182556 15.967492-15.967491 15.967491H209.968164c-8.784936 0-15.967492-7.182556-15.967492-15.967491-0.001024-8.783912 7.157982-15.967492 15.967492-15.967492zM209.968164 369.200762h203.027245c8.784936 0 15.967492 7.182556 15.967491 15.967491 0 8.784936-7.182556 15.967492-15.967491 15.967492H209.968164c-8.784936 0-15.967492-7.182556-15.967492-15.967492-0.001024-8.784936 7.157982-15.967492 15.967492-15.967491zM209.968164 468.185899h203.027245c8.784936 0 15.967492 7.182556 15.967491 15.967492 0 8.784936-7.182556 15.967492-15.967491 15.967491H209.968164c-8.784936 0-15.967492-7.182556-15.967492-15.967491-0.001024-8.784936 7.157982-15.967492 15.967492-15.967492z"  horiz-adv-x="1024" />

    
    <glyph glyph-name="xue" unicode="&#58960;" d="M504.123077 567.532308c-8.664615 0-16.541538 3.150769-22.055385 9.452307L342.646154 716.406154c-12.603077 12.603077-12.603077 32.295385 0 44.898461 12.603077 12.603077 32.295385 12.603077 44.898461 0L504.123077 643.938462l116.578461 116.578461c12.603077 12.603077 32.295385 12.603077 44.898462 0 12.603077-12.603077 12.603077-32.295385 0-44.898461L526.178462 576.984615c-5.513846-6.301538-13.390769-9.452308-22.055385-9.452307zM364.701538-20.086154c-7.876923 0-15.753846 3.150769-22.055384 9.452308-12.603077 12.603077-12.603077 32.295385 0 44.898461l139.421538 139.421539c12.603077 12.603077 32.295385 12.603077 44.898462 0l139.421538-139.421539c12.603077-12.603077 12.603077-32.295385 0-44.898461-12.603077-12.603077-32.295385-12.603077-44.898461 0L504.123077 105.944615l-116.578462-116.578461c-6.301538-6.301538-14.966154-9.452308-22.843077-9.452308zM504.123077-41.353846c-17.329231 0-31.507692 14.178462-31.507692 31.507692V777.846154c0 17.329231 14.178462 31.507692 31.507692 31.507692s31.507692-14.178462 31.507692-31.507692v-787.692308c0-17.329231-14.178462-31.507692-31.507692-31.507692zM127.606154 409.206154c-14.178462 0-26.781538 9.452308-30.72 23.630769-4.726154 16.541538 5.513846 33.870769 22.055384 38.596923l159.901539 42.535385L236.307692 673.870769c-4.726154 16.541538 5.513846 33.870769 22.055385 38.596923 16.541538 4.726154 33.870769-5.513846 38.596923-22.055384l51.2-189.833846c2.363077-7.876923 0.787692-16.541538-3.150769-23.63077s-11.027692-12.603077-18.904616-14.966154l-189.833846-51.2c-3.150769-1.575385-6.301538-1.575385-8.664615-1.575384zM756.972308 45.292308c-14.178462 0-26.781538 9.452308-30.72 23.630769l-51.2 189.833846c-4.726154 16.541538 5.513846 33.870769 22.055384 38.596923l189.833846 51.2c16.541538 4.726154 33.870769-5.513846 38.596924-22.055384 4.726154-16.541538-5.513846-33.870769-22.055385-38.596924l-159.901539-42.535384 42.535385-159.901539c4.726154-16.541538-5.513846-33.870769-22.055385-38.596923-1.575385-0.787692-3.938462-1.575385-7.08923-1.575384zM845.193846 155.569231c-5.513846 0-11.027692 1.575385-15.753846 3.938461l-682.141538 393.846154c-14.966154 8.664615-20.48 28.356923-11.815385 43.323077s28.356923 20.48 43.323077 11.815385l682.141538-393.846154c14.966154-8.664615 20.48-28.356923 11.815385-43.323077-6.301538-10.24-16.541538-15.753846-27.569231-15.753846zM267.027692 54.744615c-2.363077 0-5.513846 0-7.876923 0.787693-16.541538 4.726154-26.781538 22.055385-22.055384 38.596923l42.535384 159.901538-159.901538 42.535385c-16.541538 4.726154-26.781538 22.055385-22.055385 38.596923 4.726154 16.541538 22.055385 26.781538 38.596923 22.055385l189.833846-51.2c7.876923-2.363077 14.966154-7.089231 18.904616-14.966154s5.513846-15.753846 3.150769-23.63077l-51.2-189.833846c-3.938462-13.390769-16.541538-22.843077-29.932308-22.843077zM896.393846 418.658462c-2.363077 0-5.513846 0-7.876923 0.787692L697.895385 470.646154c-16.541538 4.726154-26.781538 22.055385-22.055385 38.596923L727.04 699.076923c4.726154 16.541538 22.055385 26.781538 38.596923 22.055385 16.541538-4.726154 26.781538-22.055385 22.055385-38.596923l-42.535385-159.901539 159.901539-42.535384c16.541538-4.726154 26.781538-22.055385 22.055384-38.596924-3.938462-14.178462-16.541538-22.843077-30.72-22.843076zM163.052308 155.569231c-11.027692 0-21.267692 5.513846-27.569231 15.753846-8.664615 14.966154-3.150769 34.658462 11.815385 43.323077l682.141538 393.846154c14.966154 8.664615 34.658462 3.150769 43.323077-11.815385 8.664615-14.966154 3.150769-34.658462-11.815385-43.323077l-682.141538-393.846154c-4.726154-2.363077-10.24-3.938462-15.753846-3.938461z"  horiz-adv-x="1024" />

    
    <glyph glyph-name="yonghu1" unicode="&#58947;" d="M632 552m-120 0a120 120 0 1 1 240 0 120 120 0 1 1-240 0ZM809 96H503c-48.1 0-87 39-87 87 0 111 90 201 201 201h78c111 0 201-90 201-201 0-48-39-87-87-87zM440 600m-168 0a168 168 0 1 1 336 0 168 168 0 1 1-336 0ZM638.2 0H241.8C179 0 128 51 128 113.8 128 263 249 384 398.2 384h83.6C631 384 752 263 752 113.8 752 51 701 0 638.2 0z"  horiz-adv-x="1024" />

    
    <glyph glyph-name="yonghu" unicode="&#59228;" d="M891.5503-83.840145v98.608264a289.00429 289.00429 0 0 1-289.00429 289.00429H421.282519a289.00429 289.00429 0 0 1-289.00429-289.00429v-98.608264a43.928652 43.928652 0 0 1 43.928653-43.928652h671.530368a43.928652 43.928652 0 0 1 43.81305 43.928652zM847.73725-72.511176H176.206882A43.928652 43.928652 0 0 0 132.278229-28.813728v-55.25762a43.928652 43.928652 0 0 1 43.928653-43.928652h671.530368a43.928652 43.928652 0 0 1 43.81305 43.928652V-28.813728a43.928652 43.928652 0 0 0-43.81305-43.697448zM511.914265 896a271.548431 271.548431 0 0 1-77.45315-11.560172 179.991872 179.991872 0 0 1-4.73967-79.880785C450.645355 679.015579 535.959422 647.918718 566.940681 653.236396s49.477534 20.923911 46.240687 43.235042-11.560172 26.703996-11.560172 26.703997a37.570558 37.570558 0 1 0-73.985098-11.560172s-9.941748 50.402348 48.783924 59.766087 76.990743-50.286746 78.955972-62.193723 2.196433-85.776473-82.539625-99.301874-169.12531 62.540528-188.777602 186.118763a214.90359 214.90359 0 0 0 0 68.320614A273.398058 273.398058 0 1 1 511.914265 896zM384.28997 864.32513l-2.427636-1.271619c0-3.699255 0.578009-7.39851 0.924814-11.560172 0.462407 4.624069 0.809212 8.78573 1.502822 12.831791zM511.914265 394.288553A273.282457 273.282457 0 0 0 239.556622 645.028675c-0.69361-7.39851-1.040415-14.912621-1.040416-22.426733a273.51366 273.51366 0 1 1 546.911719 0c0 7.514112 0 15.028223-1.040416 22.542334a273.398058 273.398058 0 0 0-272.473244-250.855723z"  horiz-adv-x="1024" />

    


  </font>
</defs>
</svg>
